<?xml version="1.0" encoding="UTF-8"?>
<svg id="Layer_1" data-name="Layer 1" xmlns="http://www.w3.org/2000/svg" viewBox="0 0 2692.91 1417.32">
  <defs>
    <style>
      .cls-1 {
        fill: #231f20;
      }
    </style>
  </defs>
  <g>
    <path class="cls-1" d="M561.56,110.56h89.45c35.09,0,68.08,16.1,68.08,60.69s-26.65,64.91-68.08,64.91h-40.37v62.8h-49.08V110.56ZM610.64,198.17h32.98c15.57,0,26.39-6.33,26.39-23.48s-11.35-24.8-26.39-24.8h-32.98v48.29Z"/>
    <path class="cls-1" d="M761.58,110.56h96.05c32.98,0,65.97,15.04,65.97,53.04,0,20.32-9.5,39.58-29.55,47.23v.53c19.79,5.01,26.12,27.18,27.44,45.12.79,8.18,1.32,35.09,7.92,42.48h-48.55c-4.22-6.6-4.75-24.54-5.54-30.08-1.32-19-4.22-38.53-27.44-38.53h-37.21v68.61h-49.08V110.56ZM810.66,192.36h41.16c14.78,0,22.69-7.65,22.69-22.17s-11.08-20.32-24.8-20.32h-39.05v42.48Z"/>
    <path class="cls-1" d="M1057.12,106.6c59.11,0,92.88,43.54,92.88,98.16s-33.78,98.16-92.88,98.16-92.88-43.54-92.88-98.16,33.78-98.16,92.88-98.16ZM1057.12,260.7c31.66,0,43.8-27.71,43.8-55.94s-12.14-55.94-43.8-55.94-43.8,27.71-43.8,55.94,12.14,55.94,43.8,55.94Z"/>
    <path class="cls-1" d="M1195.92,110.56h88.13c32.46-.79,68.08,8.18,68.08,47.23,0,16.89-10.03,30.61-24.8,38,20.05,6.07,32.46,23.22,32.46,44.59,0,44.86-32.98,58.58-73.36,58.58h-90.51V110.56ZM1245,184.71h38c8.44,0,20.05-4.49,20.05-17.94s-9.76-18.21-20.05-18.21h-38v36.15ZM1245,259.65h39.32c15.57,0,26.39-5.54,26.39-21.11,0-16.62-11.61-22.17-26.39-22.17h-39.32v43.27Z"/>
    <path class="cls-1" d="M1456.89,110.56h49.87l70.45,188.4h-51.19l-11.61-33.78h-65.7l-11.88,33.78h-50.4l70.45-188.4ZM1460.06,228.78h42.75l-20.85-65.97h-.53l-21.37,65.97Z"/>
    <path class="cls-1" d="M1610.73,110.56h88.13c32.46-.79,68.08,8.18,68.08,47.23,0,16.89-10.03,30.61-24.8,38,20.05,6.07,32.46,23.22,32.46,44.59,0,44.86-32.98,58.58-73.36,58.58h-90.51V110.56ZM1659.81,184.71h38c8.44,0,20.05-4.49,20.05-17.94s-9.76-18.21-20.05-18.21h-38v36.15ZM1659.81,259.65h39.32c15.57,0,26.39-5.54,26.39-21.11,0-16.62-11.61-22.17-26.39-22.17h-39.32v43.27Z"/>
    <path class="cls-1" d="M1820.51,110.56h49.08v146.18h87.87v42.22h-136.95V110.56Z"/>
    <path class="cls-1" d="M2062.74,228.78v70.19h-49.08v-70.19l-68.61-118.21h55.68l37.47,76.52,37.47-76.52h55.68l-68.61,118.21Z"/>
  </g>
  <g>
    <path class="cls-1" d="M231.31,959.93c-11.25,0-16.17-4.22-18.27-15.46l-89.96-471.6c-2.11-10.54,2.11-15.46,12.65-15.46h62.55c11.25,0,16.17,4.22,17.57,15.46l31.63,205.23c3.51,20.38,6.33,46.39,8.43,61.15h2.11c2.11-14.76,4.92-40.76,8.43-61.15l32.33-205.23c1.41-11.25,6.33-15.46,17.57-15.46h56.93c10.54,0,14.76,4.92,12.65,15.46l-92.07,471.6c-2.11,11.25-7.03,15.46-18.27,15.46h-44.28Z"/>
    <path class="cls-1" d="M447.77,472.86c0-11.25,4.22-15.46,15.46-15.46h66.07c11.25,0,15.46,4.22,15.46,15.46l-.7,35.84v399.91l.7,35.84c0,11.25-4.22,15.46-15.46,15.46h-66.07c-11.25,0-15.46-4.22-15.46-15.46l.7-35.84v-399.91l-.7-35.84Z"/>
    <path class="cls-1" d="M829.41,938.14c-19.68,20.38-47.09,30.22-85.04,30.22s-67.47-10.54-87.15-30.22c-27.41-27.41-37.25-76.61-37.25-163.06v-132.84c0-91.37,11.25-136.35,37.25-162.35,20.38-20.38,49.9-30.92,85.75-30.92s67.47,11.25,87.15,30.22c22.49,21.79,35.14,62.55,36.55,130.02,0,11.25-4.22,15.46-15.46,15.46h-63.26c-11.25,0-15.46-4.22-15.46-15.46,0-51.31-1.41-74.5-26.71-74.5-26.71,0-28.82,26-28.82,87.85v172.19c0,56.93,0,87.85,28.82,87.85,25.3,0,28.11-23.9,28.11-96.29,0-11.25,4.22-15.46,15.46-15.46h63.25c11.25,0,15.46,4.22,15.46,15.46-.7,86.45-16.17,128.62-38.66,151.81Z"/>
    <path class="cls-1" d="M1133.03,526.98c0,11.25-4.22,15.46-15.46,15.46h-45.68c-4.22,0-5.62,1.41-5.62,5.62v360.55l.7,35.84c0,11.25-4.22,15.46-15.46,15.46h-66.07c-11.25,0-15.46-4.22-15.46-15.46l.7-35.84v-360.55c0-4.22-1.41-5.62-5.62-5.62h-47.09c-11.25,0-15.46-4.22-15.46-15.46v-54.12c0-11.25,4.22-15.46,15.46-15.46h199.6c11.25,0,15.46,4.22,15.46,15.46v54.12Z"/>
    <path class="cls-1" d="M1303.11,968.36c-40.06,0-70.99-10.54-89.26-30.22-24.6-26-37.25-61.85-37.25-163.06v-132.84c0-101.21,12.65-137.05,37.25-163.06,18.27-18.98,49.2-30.22,89.26-30.22s70.99,11.25,89.26,30.22c24.6,26.71,37.95,61.85,37.95,163.06v132.84c0,101.21-12.65,137.05-37.95,163.06-18.27,19.68-48.5,30.22-89.26,30.22ZM1273.59,622.56v172.19c0,59.04,1.41,87.85,29.52,87.85s29.52-28.82,29.52-87.85v-172.19c0-59.04-2.81-87.85-29.52-87.85-28.11,0-29.52,28.82-29.52,87.85Z"/>
    <path class="cls-1" d="M1610.24,757.51h-4.22c-2.11,0-2.81.7-2.81,2.81v148.3l.7,35.84c0,11.25-4.22,15.46-15.46,15.46h-66.07c-11.25,0-15.46-4.22-15.46-15.46l.7-35.84v-399.91l-.7-35.84c0-11.25,4.22-15.46,15.46-15.46h92.07c107.53,0,137.75,61.85,137.75,137.05v1.41c0,87.85-30.92,108.24-67.47,119.48v3.51c29.52,8.43,65.36,27.41,66.77,109.64.7,53.42,1.41,81.53,9.84,116.67.7,2.81,1.41,6.33,1.41,9.14v.7c0,3.51-2.11,4.92-4.92,4.92h-75.2c-11.25,0-16.17-4.22-18.98-14.76-7.73-33.03-8.43-66.07-9.84-132.13-.7-33.03-14.76-55.52-43.58-55.52ZM1606.72,539.63c-2.11,0-3.51,1.41-3.51,3.51v123.7c0,2.81.7,3.51,3.51,3.51h4.22c35.84,0,44.98-25.3,44.98-63.96v-2.11c0-36.55-9.14-64.66-44.28-64.66h-4.92Z"/>
    <path class="cls-1" d="M1828.82,472.86c0-11.25,4.22-15.46,15.46-15.46h66.07c11.25,0,15.46,4.22,15.46,15.46l-.7,35.84v399.91l.7,35.84c0,11.25-4.22,15.46-15.46,15.46h-66.07c-11.25,0-15.46-4.22-15.46-15.46l.7-35.84v-399.91l-.7-35.84Z"/>
    <path class="cls-1" d="M2088.86,888.24c-4.22,0-5.62,1.41-6.33,5.62l-9.14,50.6c-2.11,11.25-7.03,15.46-18.27,15.46h-60.44c-10.54,0-14.76-4.92-11.95-14.76l101.21-473.01c2.81-10.54,7.73-14.76,18.98-14.76h44.28c11.25,0,16.17,4.22,18.98,14.76l102.61,473.01c2.81,9.84-1.41,14.76-11.95,14.76h-66.07c-11.25,0-16.17-4.22-18.27-15.46l-9.14-50.6c-.7-4.22-2.11-5.62-6.33-5.62h-68.17ZM2114.16,711.12l-15.46,87.85c-.7,4.22.7,5.62,4.92,5.62h39.36c4.22,0,5.62-1.41,4.92-5.62l-14.76-87.85c-3.51-20.38-6.33-46.39-8.43-61.15h-2.11c-2.11,14.76-4.92,40.76-8.43,61.15Z"/>
    <path class="cls-1" d="M2342.58,959.93c-11.25,0-15.46-4.22-15.46-15.46l.7-35.84v-399.91l-.7-35.84c0-11.25,4.22-15.46,15.46-15.46h31.63c11.25,0,16.87,3.51,21.08,14.06l63.25,154.62c11.95,27.41,12.65,33.03,20.38,52.01h2.81c-.7-16.87-1.41-41.47-1.41-59.04v-110.35l-.7-35.84c-.7-11.25,3.51-15.46,14.76-15.46h61.15c11.25,0,15.46,4.22,14.76,15.46l-.7,35.84v399.91l.7,35.84c.7,11.25-3.51,15.46-14.76,15.46h-29.52c-11.25,0-16.87-3.51-21.79-14.06l-68.88-165.17c-7.03-14.76-14.06-37.25-17.57-44.28h-2.81c1.41,16.17,2.11,40.76,2.11,59.04v113.16l.7,35.84c0,11.25-4.22,15.46-15.46,15.46h-59.74Z"/>
  </g>
  <g>
    <path class="cls-1" d="M905.86,1297.9h-38.89l.15-11.13v-69.54c-.1-4.11-.3-7.22-.59-9.35-.3-2.13-.62-3.57-.96-4.34-.35-.77-1.04-1.89-2.08-3.38l1.19-3.19h25.38l27.98-.45c1.73,2.57,2.76,5.53,3.08,8.87.32,3.34-.06,6.52-1.15,9.54h-3.49c-.45-2.18-2.1-4.03-4.97-5.57-2.87-1.53-5.91-2.38-9.13-2.52l-13.36-.59c-.64,11.68-.96,23.28-.96,34.81h19c1.53,0,2.72-.02,3.56-.07.84-.05,1.87-.3,3.08-.74,1.21-.45,2.24-1.09,3.08-1.93.35,1.88.52,3.61.52,5.2,0,6.28-4.63,9.43-13.88,9.43-1.88,0-4.55-.05-8.02-.15-3.46-.1-5.96-.15-7.5-.15-.05,6.58.02,13.8.22,21.67l.22,11.88h26.64c3.46,0,5.99-1.06,7.57-3.19.3,2.13.45,3.81.45,5.05,0,3.76-1.36,6.35-4.08,7.76-2.72,1.41-7.08,2.12-13.06,2.12Z"/>
    <path class="cls-1" d="M982.45,1241.94l-2.75-.59c-.79-2.42-1.92-4.55-3.38-6.38-1.46-1.83-3.06-3.22-4.79-4.16-1.73-.94-3.43-1.62-5.08-2.04-1.66-.42-3.28-.63-4.86-.63-3.07,0-5.84.69-8.31,2.08-2.47,1.39-3.71,3.64-3.71,6.75,0,1.63.75,3.2,2.26,4.71,1.51,1.51,3.49,2.88,5.94,4.12,2.45,1.24,5.13,2.51,8.05,3.82,2.92,1.31,5.85,2.76,8.79,4.34,2.94,1.58,5.64,3.3,8.09,5.16s4.43,4.12,5.94,6.79c1.51,2.67,2.26,5.59,2.26,8.76,0,7.92-2.8,14.1-8.39,18.55-5.59,4.45-12.82,6.68-21.67,6.68-6.83,0-12.64-1.82-17.44-5.46-4.8-3.64-7.2-7.8-7.2-12.51,0-2.28.54-4.25,1.63-5.94.35,3.51,2.94,6.69,7.79,9.54,4.85,2.85,9.77,4.27,14.77,4.27,3.96,0,7.35-.73,10.17-2.19,2.82-1.46,4.23-3.75,4.23-6.87,0-1.78-.96-3.51-2.89-5.2-1.93-1.68-4.33-3.17-7.2-4.45-2.87-1.29-5.99-2.82-9.35-4.6-3.37-1.78-6.48-3.64-9.35-5.57-2.87-1.93-5.27-4.44-7.2-7.53-1.93-3.09-2.89-6.49-2.89-10.21,0-7.42,2.63-13.33,7.9-17.74,5.27-4.4,12.26-6.61,20.97-6.61,8.06,0,15.26,1.93,21.6,5.79.4,1.39.63,2.98.71,4.79.07,1.81-.26,3.91-1,6.31-.74,2.4-1.96,4.47-3.64,6.2Z"/>
    <path class="cls-1" d="M1028.91,1208.54l-1.71,12.62h14.18c1.48,0,3.08-.19,4.79-.56s2.78-1,3.23-1.89c.3,1.04.45,2.25.45,3.64,0,6.09-4.35,9.13-13.06,9.13-.79,0-2.44-.07-4.94-.22-2.5-.15-4.19-.22-5.08-.22v34.21c-.05,1.44-.05,2.94,0,4.53.05,1.58.11,3.15.19,4.71s.32,3.04.74,4.45c.42,1.41.95,2.65,1.6,3.71.64,1.06,1.57,1.92,2.78,2.56,1.21.64,2.63.96,4.27.96,3.07,0,6.26-.51,9.57-1.52,3.31-1.01,5.39-2.36,6.23-4.04,1.29,3.17,1.01,6.27-.82,9.31-1.83,3.04-4.69,5.47-8.57,7.27-3.88,1.81-8.05,2.71-12.51,2.71s-8.5-.54-11.54-1.63-5.36-2.77-6.94-5.05c-1.58-2.28-2.67-4.84-3.27-7.68-.59-2.84-.89-6.37-.89-10.58,0-3.76.25-9.35.74-16.77.49-7.42.74-12.84.74-16.25,0-5.84-.45-9.33-1.34-10.46-2.03-2.57-4.55-4.4-7.57-5.49l.74-4.53c.45,0,1.04-.1,1.78-.3.74-.2,1.89-.66,3.45-1.37,1.56-.72,3.29-2.04,5.2-3.97,1.9-1.93,3.7-4.35,5.38-7.27h12.17Z"/>
    <path class="cls-1" d="M1103.95,1297.9h-35.11c.2-3.46.3-6.09.3-7.87v-71.77c0-2.72-.05-4.95-.15-6.68-.1-1.73-.45-3.72-1.04-5.97-.59-2.25-1.46-4.07-2.6-5.46l1.19-3.19,36.81-.74c5.1-.1,10.03.47,14.81,1.71,4.77,1.24,9.26,3.17,13.47,5.79,4.21,2.62,7.87,5.81,10.98,9.57,3.12,3.76,5.58,8.31,7.38,13.66,1.81,5.34,2.71,11.16,2.71,17.44,0,7.52-1.16,14.56-3.49,21.12-2.33,6.56-5.58,12.22-9.76,17-4.18,4.78-9.33,8.54-15.44,11.28-6.11,2.75-12.8,4.12-20.08,4.12ZM1105.73,1288.03c3.02,0,5.96-.79,8.83-2.38,2.87-1.58,5.48-3.83,7.83-6.75,2.35-2.92,4.24-6.69,5.68-11.32,1.43-4.63,2.15-9.71,2.15-15.25,0-8.56-1.5-16.35-4.49-23.38-2.99-7.03-7.09-12.52-12.28-16.48-5.2-3.96-10.91-5.84-17.14-5.64l-5.27.15c0,1.44-.14,8.84-.41,22.23-.27,13.38-.41,23.56-.41,30.54,0,9.25.17,18.68.52,28.28h14.99Z"/>
    <path class="cls-1" d="M1168.52,1289.66c0-2.92,1.05-5.42,3.15-7.5,2.1-2.08,4.59-3.12,7.46-3.12s5.17,1.04,7.2,3.12c2.03,2.08,3.04,4.58,3.04,7.5s-1.01,5.23-3.04,7.24c-2.03,2-4.43,3.01-7.2,3.01s-5.36-1-7.46-3.01c-2.1-2-3.15-4.42-3.15-7.24Z"/>
    <path class="cls-1" d="M1318.37,1301.69l-8.39-1.93c-3.96-.89-7.01-2.54-9.17-4.94-2.15-2.4-3.55-4.76-4.19-7.09-9.7-23.3-18.16-44.85-25.38-64.64.2,4.95.3,10.02.3,15.21-.25,26.62-.52,43.59-.82,50.91,0,3.51.27,6.41.82,8.68h-13.73l.37-3.19c.89-16.53,2.1-46.21,3.64-89.06-.74-1.34-1.48-2.45-2.23-3.34s-1.29-1.42-1.63-1.6c-.35-.17-.64-.36-.89-.56l1.41-3.19c4.06-1.43,8.56-2.15,13.51-2.15,5.99,0,10.19.87,12.62,2.6,1.68,6.68,6.04,19.07,13.06,37.18,7.03,18.11,13.01,32.73,17.96,43.86,2.42-6.28,5.32-14.4,8.68-24.34,3.36-9.95,5.64-16.43,6.83-19.45l12.25-32.51c.45-1.09,1.22-2.02,2.34-2.78,1.11-.77,2.29-1.36,3.52-1.78,1.24-.42,2.87-.77,4.9-1.04,2.03-.27,3.72-.46,5.08-.56,1.36-.1,3.22-.2,5.57-.3,2.35-.1,4-.17,4.94-.22-1.19,21.33-1.09,52.23.3,92.7.25,4.45.64,7.69,1.19,9.72h-22.93l.15-9.87c0-1.78.03-4.33.07-7.64.05-3.31.07-5.74.07-7.27,0-23.25-.1-37.18-.3-41.79l-.45-8.68-2.45,8.54-23.08,56.55c-.5,1.48-1.18,3.86-2.04,7.12-.87,3.27-1.5,5.54-1.89,6.83Z"/>
    <path class="cls-1" d="M1458.64,1301.69l-8.39-1.93c-3.96-.89-7.01-2.54-9.17-4.94-2.15-2.4-3.55-4.76-4.19-7.09-9.7-23.3-18.16-44.85-25.38-64.64.2,4.95.3,10.02.3,15.21-.25,26.62-.52,43.59-.82,50.91,0,3.51.27,6.41.82,8.68h-13.73l.37-3.19c.89-16.53,2.1-46.21,3.64-89.06-.74-1.34-1.48-2.45-2.23-3.34s-1.29-1.42-1.63-1.6c-.35-.17-.64-.36-.89-.56l1.41-3.19c4.06-1.43,8.56-2.15,13.51-2.15,5.99,0,10.19.87,12.62,2.6,1.68,6.68,6.04,19.07,13.06,37.18,7.03,18.11,13.01,32.73,17.96,43.86,2.42-6.28,5.32-14.4,8.68-24.34,3.36-9.95,5.64-16.43,6.83-19.45l12.25-32.51c.45-1.09,1.22-2.02,2.34-2.78,1.11-.77,2.29-1.36,3.53-1.78,1.24-.42,2.87-.77,4.9-1.04,2.03-.27,3.72-.46,5.08-.56,1.36-.1,3.22-.2,5.57-.3,2.35-.1,4-.17,4.94-.22-1.19,21.33-1.09,52.23.3,92.7.25,4.45.64,7.69,1.19,9.72h-22.93l.15-9.87c0-1.78.02-4.33.07-7.64.05-3.31.07-5.74.07-7.27,0-23.25-.1-37.18-.3-41.79l-.45-8.68-2.45,8.54-23.08,56.55c-.5,1.48-1.18,3.86-2.04,7.12-.87,3.27-1.5,5.54-1.89,6.83Z"/>
    <path class="cls-1" d="M1530.63,1290.48l27.54-40.15-15.66-28.13c-1.14-2.08-2.42-4.43-3.86-7.05-1.44-2.62-2.44-4.44-3.01-5.46-.57-1.01-1.26-2.19-2.08-3.53s-1.48-2.28-2-2.82c-.52-.54-1.13-1.1-1.82-1.67-.69-.57-1.51-1.08-2.45-1.52l1.34-3.19c4.16-1.43,8.83-2.15,14.03-2.15,5.64,0,9.6,1.14,11.88,3.41.54,1.24,1.35,3.08,2.41,5.53,1.06,2.45,1.94,4.37,2.63,5.75.69,1.39,2.13,4.12,4.3,8.2,2.18,4.08,5.07,9.34,8.68,15.77l.3-.89c.2-.64.57-1.36,1.11-2.15l8.46-12.77c3.36-5,5.05-8.96,5.05-11.88,0-2.38-.67-4.3-2-5.79l1.41-3.04c2.97-1.43,6.26-2.15,9.87-2.15s6.75.72,9.72,2.15c-.45,2.77-1.77,6.25-3.97,10.43-2.2,4.18-4.47,7.95-6.79,11.32l-17.96,25.98,23.08,42.3c1.19,2.13,2.87,4.48,5.05,7.05l3.19,3.86h-25.53l-19.45-36.66-2.75,4.75-15.81,23.68c-.94,1.78-1.73,3.59-2.38,5.42l-.96,2.82h-16.92l5.34-7.42Z"/>
    <path class="cls-1" d="M1614.5,1290.48l27.54-40.15-15.66-28.13c-1.14-2.08-2.42-4.43-3.86-7.05-1.44-2.62-2.44-4.44-3.01-5.46-.57-1.01-1.26-2.19-2.08-3.53s-1.48-2.28-2-2.82c-.52-.54-1.13-1.1-1.82-1.67-.69-.57-1.51-1.08-2.45-1.52l1.34-3.19c4.16-1.43,8.83-2.15,14.03-2.15,5.64,0,9.6,1.14,11.88,3.41.54,1.24,1.35,3.08,2.41,5.53,1.06,2.45,1.94,4.37,2.63,5.75.69,1.39,2.13,4.12,4.3,8.2,2.18,4.08,5.07,9.34,8.68,15.77l.3-.89c.2-.64.57-1.36,1.11-2.15l8.46-12.77c3.36-5,5.05-8.96,5.05-11.88,0-2.38-.67-4.3-2-5.79l1.41-3.04c2.97-1.43,6.26-2.15,9.87-2.15s6.75.72,9.72,2.15c-.45,2.77-1.77,6.25-3.97,10.43-2.2,4.18-4.47,7.95-6.79,11.32l-17.96,25.98,23.08,42.3c1.19,2.13,2.87,4.48,5.05,7.05l3.19,3.86h-25.53l-19.45-36.66-2.75,4.75-15.81,23.68c-.94,1.78-1.73,3.59-2.38,5.42l-.96,2.82h-16.92l5.34-7.42Z"/>
    <path class="cls-1" d="M1741.41,1299.76c-2.13-.45-4.03-1.16-5.71-2.15-1.68-.99-3.03-2.1-4.04-3.34-1.01-1.24-1.81-2.39-2.38-3.45-.57-1.06-1-2.09-1.3-3.08l-23.53-65.83c-1.34-4.16-2.68-7.77-4.04-10.84-1.36-3.07-2.56-5.32-3.6-6.75-1.04-1.43-1.87-2.46-2.49-3.08-.62-.62-1.1-.98-1.45-1.08l1.41-3.19c4.21-1.43,8.76-2.15,13.66-2.15,5.79,0,9.95,1.14,12.47,3.41,1.93,9.3,6.13,23.53,12.62,42.68,6.48,19.15,11.28,32.58,14.4,40.3,1.78-7.27,5.63-18.31,11.54-33.1,5.91-14.79,9.73-24.89,11.47-30.28,1.29-4.4,1.93-7.59,1.93-9.57,0-3.51-1.11-6.46-3.34-8.83l.96-2.45c3.61-1.43,6.9-2.15,9.87-2.15,3.27,0,6.36.72,9.28,2.15-.15,2.72-.73,6.19-1.74,10.39-1.01,4.21-2.07,7.64-3.15,10.32l-29.17,70.06-4.08,13.95-9.57-1.93Z"/>
    <path class="cls-1" d="M1804.27,1297.9c.2-6.73.3-33.94.3-81.64,0-2.72-.12-5.05-.37-6.98-.25-1.93-.57-3.38-.96-4.34-.4-.96-.83-1.87-1.3-2.71-.47-.84-.95-1.53-1.45-2.08l1.19-3.19,1.78-.52c1.24-.35,2.98-.71,5.23-1.08,2.25-.37,4.42-.56,6.49-.56,5.1,0,9,.67,11.73,2-1.04,18.51-1.56,38.57-1.56,60.19,0,24.64.62,38.27,1.86,40.89h-22.93Z"/>
  </g>
  <rect class="cls-1" x="1260.02" y="1102.24" width="172.87" height="17.29"/>
</svg>