<?xml version="1.0" encoding="UTF-8"?>
<svg id="Layer_1" data-name="Layer 1" xmlns="http://www.w3.org/2000/svg" viewBox="0 0 2692.91 1417.32">
  <defs>
    <style>
      .cls-1 {
        fill: #231f20;
      }
    </style>
  </defs>
  <g>
    <path class="cls-1" d="M561.56,110.56h89.45c35.09,0,68.08,16.1,68.08,60.69s-26.65,64.91-68.08,64.91h-40.37v62.8h-49.08V110.56ZM610.64,198.17h32.98c15.57,0,26.39-6.33,26.39-23.48s-11.35-24.8-26.39-24.8h-32.98v48.29Z"/>
    <path class="cls-1" d="M761.58,110.56h96.05c32.98,0,65.97,15.04,65.97,53.04,0,20.32-9.5,39.58-29.55,47.23v.53c19.79,5.01,26.12,27.18,27.44,45.12.79,8.18,1.32,35.09,7.92,42.48h-48.55c-4.22-6.6-4.75-24.54-5.54-30.08-1.32-19-4.22-38.53-27.44-38.53h-37.21v68.61h-49.08V110.56ZM810.66,192.36h41.16c14.78,0,22.69-7.65,22.69-22.17s-11.08-20.32-24.8-20.32h-39.05v42.48Z"/>
    <path class="cls-1" d="M1057.12,106.6c59.11,0,92.88,43.54,92.88,98.16s-33.78,98.16-92.88,98.16-92.88-43.54-92.88-98.16,33.78-98.16,92.88-98.16ZM1057.12,260.7c31.66,0,43.8-27.71,43.8-55.94s-12.14-55.94-43.8-55.94-43.8,27.71-43.8,55.94,12.14,55.94,43.8,55.94Z"/>
    <path class="cls-1" d="M1195.92,110.56h88.13c32.46-.79,68.08,8.18,68.08,47.23,0,16.89-10.03,30.61-24.8,38,20.05,6.07,32.46,23.22,32.46,44.59,0,44.86-32.98,58.58-73.36,58.58h-90.51V110.56ZM1245,184.71h38c8.44,0,20.05-4.49,20.05-17.94s-9.76-18.21-20.05-18.21h-38v36.15ZM1245,259.65h39.32c15.57,0,26.39-5.54,26.39-21.11,0-16.62-11.61-22.17-26.39-22.17h-39.32v43.27Z"/>
    <path class="cls-1" d="M1456.89,110.56h49.87l70.45,188.4h-51.19l-11.61-33.78h-65.7l-11.88,33.78h-50.4l70.45-188.4ZM1460.06,228.78h42.75l-20.85-65.97h-.53l-21.37,65.97Z"/>
    <path class="cls-1" d="M1610.73,110.56h88.13c32.46-.79,68.08,8.18,68.08,47.23,0,16.89-10.03,30.61-24.8,38,20.05,6.07,32.46,23.22,32.46,44.59,0,44.86-32.98,58.58-73.36,58.58h-90.51V110.56ZM1659.81,184.71h38c8.44,0,20.05-4.49,20.05-17.94s-9.76-18.21-20.05-18.21h-38v36.15ZM1659.81,259.65h39.32c15.57,0,26.39-5.54,26.39-21.11,0-16.62-11.61-22.17-26.39-22.17h-39.32v43.27Z"/>
    <path class="cls-1" d="M1820.51,110.56h49.08v146.18h87.87v42.22h-136.95V110.56Z"/>
    <path class="cls-1" d="M2062.74,228.78v70.19h-49.08v-70.19l-68.61-118.21h55.68l37.47,76.52,37.47-76.52h55.68l-68.61,118.21Z"/>
  </g>
  <g>
    <path class="cls-1" d="M231.31,959.93c-11.25,0-16.17-4.22-18.27-15.46l-89.96-471.6c-2.11-10.54,2.11-15.46,12.65-15.46h62.55c11.25,0,16.17,4.22,17.57,15.46l31.63,205.23c3.51,20.38,6.33,46.39,8.43,61.15h2.11c2.11-14.76,4.92-40.76,8.43-61.15l32.33-205.23c1.41-11.25,6.33-15.46,17.57-15.46h56.93c10.54,0,14.76,4.92,12.65,15.46l-92.07,471.6c-2.11,11.25-7.03,15.46-18.27,15.46h-44.28Z"/>
    <path class="cls-1" d="M447.77,472.86c0-11.25,4.22-15.46,15.46-15.46h66.07c11.25,0,15.46,4.22,15.46,15.46l-.7,35.84v399.91l.7,35.84c0,11.25-4.22,15.46-15.46,15.46h-66.07c-11.25,0-15.46-4.22-15.46-15.46l.7-35.84v-399.91l-.7-35.84Z"/>
    <path class="cls-1" d="M829.41,938.14c-19.68,20.38-47.09,30.22-85.04,30.22s-67.47-10.54-87.15-30.22c-27.41-27.41-37.25-76.61-37.25-163.06v-132.84c0-91.37,11.25-136.35,37.25-162.35,20.38-20.38,49.9-30.92,85.75-30.92s67.47,11.25,87.15,30.22c22.49,21.79,35.14,62.55,36.55,130.02,0,11.25-4.22,15.46-15.46,15.46h-63.26c-11.25,0-15.46-4.22-15.46-15.46,0-51.31-1.41-74.5-26.71-74.5-26.71,0-28.82,26-28.82,87.85v172.19c0,56.93,0,87.85,28.82,87.85,25.3,0,28.11-23.9,28.11-96.29,0-11.25,4.22-15.46,15.46-15.46h63.25c11.25,0,15.46,4.22,15.46,15.46-.7,86.45-16.17,128.62-38.66,151.81Z"/>
    <path class="cls-1" d="M1133.03,526.98c0,11.25-4.22,15.46-15.46,15.46h-45.68c-4.22,0-5.62,1.41-5.62,5.62v360.55l.7,35.84c0,11.25-4.22,15.46-15.46,15.46h-66.07c-11.25,0-15.46-4.22-15.46-15.46l.7-35.84v-360.55c0-4.22-1.41-5.62-5.62-5.62h-47.09c-11.25,0-15.46-4.22-15.46-15.46v-54.12c0-11.25,4.22-15.46,15.46-15.46h199.6c11.25,0,15.46,4.22,15.46,15.46v54.12Z"/>
    <path class="cls-1" d="M1303.11,968.36c-40.06,0-70.99-10.54-89.26-30.22-24.6-26-37.25-61.85-37.25-163.06v-132.84c0-101.21,12.65-137.05,37.25-163.06,18.27-18.98,49.2-30.22,89.26-30.22s70.99,11.25,89.26,30.22c24.6,26.71,37.95,61.85,37.95,163.06v132.84c0,101.21-12.65,137.05-37.95,163.06-18.27,19.68-48.5,30.22-89.26,30.22ZM1273.59,622.56v172.19c0,59.04,1.41,87.85,29.52,87.85s29.52-28.82,29.52-87.85v-172.19c0-59.04-2.81-87.85-29.52-87.85-28.11,0-29.52,28.82-29.52,87.85Z"/>
    <path class="cls-1" d="M1610.24,757.51h-4.22c-2.11,0-2.81.7-2.81,2.81v148.3l.7,35.84c0,11.25-4.22,15.46-15.46,15.46h-66.07c-11.25,0-15.46-4.22-15.46-15.46l.7-35.84v-399.91l-.7-35.84c0-11.25,4.22-15.46,15.46-15.46h92.07c107.53,0,137.75,61.85,137.75,137.05v1.41c0,87.85-30.92,108.24-67.47,119.48v3.51c29.52,8.43,65.36,27.41,66.77,109.64.7,53.42,1.41,81.53,9.84,116.67.7,2.81,1.41,6.33,1.41,9.14v.7c0,3.51-2.11,4.92-4.92,4.92h-75.2c-11.25,0-16.17-4.22-18.98-14.76-7.73-33.03-8.43-66.07-9.84-132.13-.7-33.03-14.76-55.52-43.58-55.52ZM1606.72,539.63c-2.11,0-3.51,1.41-3.51,3.51v123.7c0,2.81.7,3.51,3.51,3.51h4.22c35.84,0,44.98-25.3,44.98-63.96v-2.11c0-36.55-9.14-64.66-44.28-64.66h-4.92Z"/>
    <path class="cls-1" d="M1828.82,472.86c0-11.25,4.22-15.46,15.46-15.46h66.07c11.25,0,15.46,4.22,15.46,15.46l-.7,35.84v399.91l.7,35.84c0,11.25-4.22,15.46-15.46,15.46h-66.07c-11.25,0-15.46-4.22-15.46-15.46l.7-35.84v-399.91l-.7-35.84Z"/>
    <path class="cls-1" d="M2088.86,888.24c-4.22,0-5.62,1.41-6.33,5.62l-9.14,50.6c-2.11,11.25-7.03,15.46-18.27,15.46h-60.44c-10.54,0-14.76-4.92-11.95-14.76l101.21-473.01c2.81-10.54,7.73-14.76,18.98-14.76h44.28c11.25,0,16.17,4.22,18.98,14.76l102.61,473.01c2.81,9.84-1.41,14.76-11.95,14.76h-66.07c-11.25,0-16.17-4.22-18.27-15.46l-9.14-50.6c-.7-4.22-2.11-5.62-6.33-5.62h-68.17ZM2114.16,711.12l-15.46,87.85c-.7,4.22.7,5.62,4.92,5.62h39.36c4.22,0,5.62-1.41,4.92-5.62l-14.76-87.85c-3.51-20.38-6.33-46.39-8.43-61.15h-2.11c-2.11,14.76-4.92,40.76-8.43,61.15Z"/>
    <path class="cls-1" d="M2342.58,959.93c-11.25,0-15.46-4.22-15.46-15.46l.7-35.84v-399.91l-.7-35.84c0-11.25,4.22-15.46,15.46-15.46h31.63c11.25,0,16.87,3.51,21.08,14.06l63.25,154.62c11.95,27.41,12.65,33.03,20.38,52.01h2.81c-.7-16.87-1.41-41.47-1.41-59.04v-110.35l-.7-35.84c-.7-11.25,3.51-15.46,14.76-15.46h61.15c11.25,0,15.46,4.22,14.76,15.46l-.7,35.84v399.91l.7,35.84c.7,11.25-3.51,15.46-14.76,15.46h-29.52c-11.25,0-16.87-3.51-21.79-14.06l-68.88-165.17c-7.03-14.76-14.06-37.25-17.57-44.28h-2.81c1.41,16.17,2.11,40.76,2.11,59.04v113.16l.7,35.84c0,11.25-4.22,15.46-15.46,15.46h-59.74Z"/>
  </g>
  <g>
    <path class="cls-1" d="M1192.49,1290.78l2.38-2.45c1.68-1.78,3.53-3.62,5.53-5.53,2-1.9,4.12-4.11,6.35-6.61,2.23-2.5,4.4-5.01,6.53-7.53,2.13-2.52,4.16-5.32,6.09-8.39,1.93-3.07,3.62-6.12,5.08-9.17,1.46-3.04,2.62-6.32,3.49-9.83.87-3.51,1.3-6.98,1.3-10.39,0-1.93-.17-3.72-.52-5.38-.35-1.66-.92-3.22-1.71-4.68-.79-1.46-1.91-2.61-3.34-3.45-1.44-.84-3.17-1.26-5.2-1.26-3.12,0-5.68.92-7.68,2.75-2,1.83-2.73,4.21-2.19,7.12-1.78,2.03-4.01,3.04-6.68,3.04-2.33,0-4.3-.68-5.94-2.04-1.63-1.36-2.45-3.25-2.45-5.68,0-4.35,2.63-7.83,7.9-10.43s11.54-3.9,18.81-3.9c5.29,0,9.95.64,13.95,1.93,4.01,1.29,7.12,3.03,9.35,5.23,2.23,2.2,3.87,4.58,4.94,7.12,1.06,2.55,1.6,5.23,1.6,8.05,0,4.11-.99,8.5-2.97,13.17-1.98,4.68-4.45,8.99-7.42,12.95-2.97,3.96-6.2,7.82-9.69,11.58-3.49,3.76-6.72,6.95-9.69,9.57-2.97,2.62-5.44,4.73-7.42,6.31l-2.97,2.38h27.98c4.4,0,7.63-.2,9.69-.59,2.05-.4,3.65-1.31,4.79-2.75.49,1.83.74,3.66.74,5.49,0,6.73-4.5,10.22-13.51,10.46h-47.13v-7.12Z"/>
    <path class="cls-1" d="M1269.49,1230.4c3.34-7.25,8.2-12.96,14.58-17.14,6.38-4.18,13.78-6.27,22.19-6.27,5.05,0,9.71.92,13.99,2.75,4.28,1.83,8.04,4.54,11.28,8.13,3.24,3.59,5.78,8.25,7.61,13.99,1.83,5.74,2.75,12.3,2.75,19.67,0,9.01-1.62,17.13-4.86,24.38-3.24,7.25-8.12,13.09-14.62,17.52-6.51,4.43-14.11,6.64-22.82,6.64-4.8,0-9.25-.87-13.36-2.6-4.11-1.73-7.82-4.35-11.13-7.87-3.32-3.51-5.91-8.23-7.79-14.14-1.88-5.91-2.82-12.73-2.82-20.45,0-9.15,1.67-17.35,5.01-24.6ZM1316.1,1228.99c-4.08-7.35-9.22-11.02-15.4-11.02-4.7,0-8.67,3.03-11.91,9.09-3.24,6.06-4.91,13.3-5.01,21.71.15,7.97,1.09,15.1,2.82,21.41,1.73,6.31,4.14,11.28,7.24,14.92,3.09,3.64,6.59,5.48,10.5,5.53,4.8-.15,8.98-3.38,12.54-9.69s5.34-14.19,5.34-23.64c0-11.53-2.04-20.97-6.12-28.31Z"/>
    <path class="cls-1" d="M1353.99,1290.78l2.38-2.45c1.68-1.78,3.53-3.62,5.53-5.53,2-1.9,4.12-4.11,6.35-6.61,2.23-2.5,4.4-5.01,6.53-7.53,2.13-2.52,4.16-5.32,6.09-8.39,1.93-3.07,3.62-6.12,5.08-9.17,1.46-3.04,2.62-6.32,3.49-9.83.87-3.51,1.3-6.98,1.3-10.39,0-1.93-.17-3.72-.52-5.38-.35-1.66-.92-3.22-1.71-4.68-.79-1.46-1.91-2.61-3.34-3.45-1.44-.84-3.17-1.26-5.2-1.26-3.12,0-5.68.92-7.68,2.75-2,1.83-2.73,4.21-2.19,7.12-1.78,2.03-4.01,3.04-6.68,3.04-2.33,0-4.3-.68-5.94-2.04-1.63-1.36-2.45-3.25-2.45-5.68,0-4.35,2.63-7.83,7.9-10.43s11.54-3.9,18.81-3.9c5.29,0,9.95.64,13.95,1.93,4.01,1.29,7.12,3.03,9.35,5.23,2.23,2.2,3.87,4.58,4.94,7.12,1.06,2.55,1.6,5.23,1.6,8.05,0,4.11-.99,8.5-2.97,13.17-1.98,4.68-4.45,8.99-7.42,12.95-2.97,3.96-6.2,7.82-9.69,11.58-3.49,3.76-6.72,6.95-9.69,9.57-2.97,2.62-5.44,4.73-7.42,6.31l-2.97,2.38h27.98c4.4,0,7.63-.2,9.69-.59,2.05-.4,3.65-1.31,4.79-2.75.49,1.83.74,3.66.74,5.49,0,6.73-4.5,10.22-13.51,10.46h-47.13v-7.12Z"/>
    <path class="cls-1" d="M1481.35,1235.11c3.27,1.09,6.22,2.73,8.87,4.94,2.65,2.2,4.71,5.16,6.2,8.87s2.23,7.99,2.23,12.84c0,6.78-1.4,13.03-4.19,18.74-2.8,5.71-6.99,10.38-12.58,13.99-5.59,3.61-12.05,5.42-19.37,5.42-4.65,0-8.89-.88-12.73-2.63-3.83-1.76-7.03-4.09-9.57-7.01-2.55-2.92-4.69-6.35-6.42-10.28-1.73-3.93-2.98-7.99-3.75-12.17-.77-4.18-1.15-8.5-1.15-12.95,0-6.23.47-12.06,1.41-17.48.94-5.42,2.2-10.13,3.79-14.14,1.58-4.01,3.48-7.63,5.68-10.87,2.2-3.24,4.55-5.94,7.05-8.09,2.5-2.15,5.15-3.96,7.94-5.42,2.79-1.46,5.53-2.5,8.2-3.12,2.67-.62,5.34-.93,8.02-.93,5.29,0,10.09.8,14.4,2.41,4.3,1.61,7.48,4.03,9.54,7.27,2.05,3.24,2.29,6.92.71,11.02-2.23-3.31-5.47-5.86-9.72-7.64-4.26-1.78-8.21-2.67-11.88-2.67-5.69,0-10.76,2.91-15.21,8.72-4.45,5.81-7.22,14.36-8.31,25.64,6.93-4.06,13.66-6.09,20.19-6.09,3.86,0,7.42.54,10.69,1.63ZM1475.11,1284.58c2.13-4.03,3.19-9.69,3.19-16.96,0-7.77-1.34-13.8-4.01-18.11s-6.41-6.46-11.21-6.46c-2.13,0-4.59.35-7.38,1.04-2.8.69-4.69,1.36-5.68,2v4.08c0,4.9.27,9.6.82,14.1.54,4.5,1.4,8.79,2.56,12.88,1.16,4.08,2.84,7.35,5.05,9.8,2.2,2.45,4.76,3.67,7.68,3.67,3.86,0,6.85-2.02,8.98-6.05Z"/>
  </g>
  <rect class="cls-1" x="1260.02" y="1102.24" width="172.87" height="17.29"/>
</svg>