<?xml version="1.0" encoding="UTF-8"?>
<svg id="Layer_1" data-name="Layer 1" xmlns="http://www.w3.org/2000/svg" viewBox="0 0 2692.91 1417.32">
  <defs>
    <style>
      .cls-1 {
        fill: #231f20;
      }
    </style>
  </defs>
  <g>
    <path class="cls-1" d="M561.56,110.56h89.45c35.09,0,68.08,16.1,68.08,60.69s-26.65,64.91-68.08,64.91h-40.37v62.8h-49.08V110.56ZM610.64,198.17h32.98c15.57,0,26.39-6.33,26.39-23.48s-11.35-24.8-26.39-24.8h-32.98v48.29Z"/>
    <path class="cls-1" d="M761.58,110.56h96.05c32.98,0,65.97,15.04,65.97,53.04,0,20.32-9.5,39.58-29.55,47.23v.53c19.79,5.01,26.12,27.18,27.44,45.12.79,8.18,1.32,35.09,7.92,42.48h-48.55c-4.22-6.6-4.75-24.54-5.54-30.08-1.32-19-4.22-38.53-27.44-38.53h-37.21v68.61h-49.08V110.56ZM810.66,192.36h41.16c14.78,0,22.69-7.65,22.69-22.17s-11.08-20.32-24.8-20.32h-39.05v42.48Z"/>
    <path class="cls-1" d="M1057.12,106.6c59.11,0,92.88,43.54,92.88,98.16s-33.78,98.16-92.88,98.16-92.88-43.54-92.88-98.16,33.78-98.16,92.88-98.16ZM1057.12,260.7c31.66,0,43.8-27.71,43.8-55.94s-12.14-55.94-43.8-55.94-43.8,27.71-43.8,55.94,12.14,55.94,43.8,55.94Z"/>
    <path class="cls-1" d="M1195.92,110.56h88.13c32.46-.79,68.08,8.18,68.08,47.23,0,16.89-10.03,30.61-24.8,38,20.05,6.07,32.46,23.22,32.46,44.59,0,44.86-32.98,58.58-73.36,58.58h-90.51V110.56ZM1245,184.71h38c8.44,0,20.05-4.49,20.05-17.94s-9.76-18.21-20.05-18.21h-38v36.15ZM1245,259.65h39.32c15.57,0,26.39-5.54,26.39-21.11,0-16.62-11.61-22.17-26.39-22.17h-39.32v43.27Z"/>
    <path class="cls-1" d="M1456.89,110.56h49.87l70.45,188.4h-51.19l-11.61-33.78h-65.7l-11.88,33.78h-50.4l70.45-188.4ZM1460.06,228.78h42.75l-20.85-65.97h-.53l-21.37,65.97Z"/>
    <path class="cls-1" d="M1610.73,110.56h88.13c32.46-.79,68.08,8.18,68.08,47.23,0,16.89-10.03,30.61-24.8,38,20.05,6.07,32.46,23.22,32.46,44.59,0,44.86-32.98,58.58-73.36,58.58h-90.51V110.56ZM1659.81,184.71h38c8.44,0,20.05-4.49,20.05-17.94s-9.76-18.21-20.05-18.21h-38v36.15ZM1659.81,259.65h39.32c15.57,0,26.39-5.54,26.39-21.11,0-16.62-11.61-22.17-26.39-22.17h-39.32v43.27Z"/>
    <path class="cls-1" d="M1820.51,110.56h49.08v146.18h87.87v42.22h-136.95V110.56Z"/>
    <path class="cls-1" d="M2062.74,228.78v70.19h-49.08v-70.19l-68.61-118.21h55.68l37.47,76.52,37.47-76.52h55.68l-68.61,118.21Z"/>
  </g>
  <g>
    <path class="cls-1" d="M231.31,959.93c-11.25,0-16.17-4.22-18.27-15.46l-89.96-471.6c-2.11-10.54,2.11-15.46,12.65-15.46h62.55c11.25,0,16.17,4.22,17.57,15.46l31.63,205.23c3.51,20.38,6.33,46.39,8.43,61.15h2.11c2.11-14.76,4.92-40.76,8.43-61.15l32.33-205.23c1.41-11.25,6.33-15.46,17.57-15.46h56.93c10.54,0,14.76,4.92,12.65,15.46l-92.07,471.6c-2.11,11.25-7.03,15.46-18.27,15.46h-44.28Z"/>
    <path class="cls-1" d="M447.77,472.86c0-11.25,4.22-15.46,15.46-15.46h66.07c11.25,0,15.46,4.22,15.46,15.46l-.7,35.84v399.91l.7,35.84c0,11.25-4.22,15.46-15.46,15.46h-66.07c-11.25,0-15.46-4.22-15.46-15.46l.7-35.84v-399.91l-.7-35.84Z"/>
    <path class="cls-1" d="M829.41,938.14c-19.68,20.38-47.09,30.22-85.04,30.22s-67.47-10.54-87.15-30.22c-27.41-27.41-37.25-76.61-37.25-163.06v-132.84c0-91.37,11.25-136.35,37.25-162.35,20.38-20.38,49.9-30.92,85.75-30.92s67.47,11.25,87.15,30.22c22.49,21.79,35.14,62.55,36.55,130.02,0,11.25-4.22,15.46-15.46,15.46h-63.26c-11.25,0-15.46-4.22-15.46-15.46,0-51.31-1.41-74.5-26.71-74.5-26.71,0-28.82,26-28.82,87.85v172.19c0,56.93,0,87.85,28.82,87.85,25.3,0,28.11-23.9,28.11-96.29,0-11.25,4.22-15.46,15.46-15.46h63.25c11.25,0,15.46,4.22,15.46,15.46-.7,86.45-16.17,128.62-38.66,151.81Z"/>
    <path class="cls-1" d="M1133.03,526.98c0,11.25-4.22,15.46-15.46,15.46h-45.68c-4.22,0-5.62,1.41-5.62,5.62v360.55l.7,35.84c0,11.25-4.22,15.46-15.46,15.46h-66.07c-11.25,0-15.46-4.22-15.46-15.46l.7-35.84v-360.55c0-4.22-1.41-5.62-5.62-5.62h-47.09c-11.25,0-15.46-4.22-15.46-15.46v-54.12c0-11.25,4.22-15.46,15.46-15.46h199.6c11.25,0,15.46,4.22,15.46,15.46v54.12Z"/>
    <path class="cls-1" d="M1303.11,968.36c-40.06,0-70.99-10.54-89.26-30.22-24.6-26-37.25-61.85-37.25-163.06v-132.84c0-101.21,12.65-137.05,37.25-163.06,18.27-18.98,49.2-30.22,89.26-30.22s70.99,11.25,89.26,30.22c24.6,26.71,37.95,61.85,37.95,163.06v132.84c0,101.21-12.65,137.05-37.95,163.06-18.27,19.68-48.5,30.22-89.26,30.22ZM1273.59,622.56v172.19c0,59.04,1.41,87.85,29.52,87.85s29.52-28.82,29.52-87.85v-172.19c0-59.04-2.81-87.85-29.52-87.85-28.11,0-29.52,28.82-29.52,87.85Z"/>
    <path class="cls-1" d="M1610.24,757.51h-4.22c-2.11,0-2.81.7-2.81,2.81v148.3l.7,35.84c0,11.25-4.22,15.46-15.46,15.46h-66.07c-11.25,0-15.46-4.22-15.46-15.46l.7-35.84v-399.91l-.7-35.84c0-11.25,4.22-15.46,15.46-15.46h92.07c107.53,0,137.75,61.85,137.75,137.05v1.41c0,87.85-30.92,108.24-67.47,119.48v3.51c29.52,8.43,65.36,27.41,66.77,109.64.7,53.42,1.41,81.53,9.84,116.67.7,2.81,1.41,6.33,1.41,9.14v.7c0,3.51-2.11,4.92-4.92,4.92h-75.2c-11.25,0-16.17-4.22-18.98-14.76-7.73-33.03-8.43-66.07-9.84-132.13-.7-33.03-14.76-55.52-43.58-55.52ZM1606.72,539.63c-2.11,0-3.51,1.41-3.51,3.51v123.7c0,2.81.7,3.51,3.51,3.51h4.22c35.84,0,44.98-25.3,44.98-63.96v-2.11c0-36.55-9.14-64.66-44.28-64.66h-4.92Z"/>
    <path class="cls-1" d="M1828.82,472.86c0-11.25,4.22-15.46,15.46-15.46h66.07c11.25,0,15.46,4.22,15.46,15.46l-.7,35.84v399.91l.7,35.84c0,11.25-4.22,15.46-15.46,15.46h-66.07c-11.25,0-15.46-4.22-15.46-15.46l.7-35.84v-399.91l-.7-35.84Z"/>
    <path class="cls-1" d="M2088.86,888.24c-4.22,0-5.62,1.41-6.33,5.62l-9.14,50.6c-2.11,11.25-7.03,15.46-18.27,15.46h-60.44c-10.54,0-14.76-4.92-11.95-14.76l101.21-473.01c2.81-10.54,7.73-14.76,18.98-14.76h44.28c11.25,0,16.17,4.22,18.98,14.76l102.61,473.01c2.81,9.84-1.41,14.76-11.95,14.76h-66.07c-11.25,0-16.17-4.22-18.27-15.46l-9.14-50.6c-.7-4.22-2.11-5.62-6.33-5.62h-68.17ZM2114.16,711.12l-15.46,87.85c-.7,4.22.7,5.62,4.92,5.62h39.36c4.22,0,5.62-1.41,4.92-5.62l-14.76-87.85c-3.51-20.38-6.33-46.39-8.43-61.15h-2.11c-2.11,14.76-4.92,40.76-8.43,61.15Z"/>
    <path class="cls-1" d="M2342.58,959.93c-11.25,0-15.46-4.22-15.46-15.46l.7-35.84v-399.91l-.7-35.84c0-11.25,4.22-15.46,15.46-15.46h31.63c11.25,0,16.87,3.51,21.08,14.06l63.25,154.62c11.95,27.41,12.65,33.03,20.38,52.01h2.81c-.7-16.87-1.41-41.47-1.41-59.04v-110.35l-.7-35.84c-.7-11.25,3.51-15.46,14.76-15.46h61.15c11.25,0,15.46,4.22,14.76,15.46l-.7,35.84v399.91l.7,35.84c.7,11.25-3.51,15.46-14.76,15.46h-29.52c-11.25,0-16.87-3.51-21.79-14.06l-68.88-165.17c-7.03-14.76-14.06-37.25-17.57-44.28h-2.81c1.41,16.17,2.11,40.76,2.11,59.04v113.16l.7,35.84c0,11.25-4.22,15.46-15.46,15.46h-59.74Z"/>
  </g>
  <g>
    <path class="cls-1" d="M906.01,1297.9h-22.93l.3-11.13v-69.54c-.1-4.11-.3-7.22-.59-9.35-.3-2.13-.62-3.57-.96-4.34-.35-.77-1.04-1.89-2.08-3.38l1.19-3.19h25.38l27.98-.45c1.73,2.57,2.76,5.53,3.08,8.87.32,3.34-.06,6.52-1.15,9.54h-3.49c-.45-2.18-2.1-4.03-4.97-5.57-2.87-1.53-5.91-2.38-9.13-2.52l-13.36-.59c-.64,11.68-.96,23.28-.96,34.81h19c1.53,0,2.72-.02,3.56-.07.84-.05,1.87-.3,3.08-.74,1.21-.45,2.24-1.09,3.08-1.93.35,1.88.52,3.61.52,5.2,0,6.28-4.63,9.43-13.88,9.43-1.88,0-4.55-.05-8.02-.15-3.46-.1-5.96-.15-7.5-.15-.05,6.58.02,13.8.22,21.67l.22,11.88.37,4.75c.2,3.12.54,5.44,1.04,6.98Z"/>
    <path class="cls-1" d="M952.88,1239.45c3.39-6.36,8.14-11.38,14.25-15.07,6.11-3.69,12.98-5.53,20.6-5.53,4.6,0,8.97.83,13.1,2.49,4.13,1.66,7.83,4.07,11.1,7.24,3.27,3.17,5.85,7.27,7.76,12.32,1.9,5.05,2.86,10.71,2.86,17,0,7.37-1.67,14.25-5.01,20.63s-8.09,11.54-14.25,15.47-13.05,5.9-20.67,5.9c-3.66,0-7.05-.43-10.17-1.3s-5.78-1.99-7.98-3.38c-2.2-1.38-4.21-3.05-6.01-5.01-1.81-1.95-3.27-3.91-4.38-5.86-1.11-1.95-2.09-4.07-2.93-6.35-.84-2.28-1.47-4.3-1.89-6.09-.42-1.78-.74-3.57-.96-5.38-.22-1.81-.36-3.1-.41-3.9-.05-.79-.07-1.46-.07-2,0-7.77,1.69-14.83,5.08-21.19ZM970.76,1272.7c1.56,5.62,3.75,10.08,6.57,13.4,2.82,3.32,5.94,4.97,9.35,4.97,4.21,0,7.77-2.7,10.69-8.09,2.92-5.39,4.38-12.17,4.38-20.34,0-9.65-1.91-17.84-5.71-24.57-3.81-6.73-8.39-10.09-13.73-10.09-2.33,0-4.42.85-6.27,2.56s-3.32,3.91-4.38,6.61c-1.06,2.7-1.87,5.53-2.41,8.5-.54,2.97-.82,5.89-.82,8.76,0,6.58.78,12.68,2.34,18.29Z"/>
    <path class="cls-1" d="M1040.79,1281.35c0-1.24.02-4.53.07-9.87.05-5.34.07-11.83.07-19.45,0-8.11-.77-14.3-2.3-18.55-.45-1.38-1.13-2.56-2.04-3.53-.92-.96-1.74-1.57-2.49-1.82l-1.04-.45v-2.75c2.03-1.34,4.5-2.56,7.42-3.67,2.92-1.11,5.59-1.67,8.02-1.67s4.44.37,6.05,1.11c1.61.74,2.79,1.84,3.56,3.3.77,1.46,1.29,2.98,1.56,4.56.27,1.58.41,3.51.41,5.79,0,3.07-.1,7.93-.3,14.58-.2,6.66-.3,11.76-.3,15.33,0,2.87.04,5.23.11,7.09s.3,3.88.67,6.09c.37,2.2.89,3.92,1.56,5.16.67,1.24,1.62,2.28,2.86,3.12,1.24.84,2.75,1.26,4.53,1.26,3.91,0,7.4-.68,10.46-2.04,3.07-1.36,5.52-3.08,7.35-5.16,0-1.14.05-5.43.15-12.88.1-7.45.15-14.09.15-19.93,0-11.23-2.6-17.66-7.79-19.3v-2.75c1.48-1.14,3.76-2.31,6.83-3.53,3.07-1.21,5.81-1.82,8.24-1.82s4.61.37,6.27,1.11c1.66.74,2.88,1.83,3.67,3.27.79,1.44,1.34,2.89,1.63,4.38s.45,3.24.45,5.27c0,.3-.03,1.55-.07,3.75-.05,2.2-.1,6.41-.15,12.62-.05,6.21-.07,14.39-.07,24.53,0,8.16,1.11,13.11,3.34,14.84,1.93,1.73,4.8,2.6,8.61,2.6v3.34c-1.04.79-3.32,1.76-6.83,2.89-3.51,1.14-6.66,1.71-9.43,1.71-2.18,0-4.13-.45-5.86-1.34-1.73-.89-3.11-2.04-4.12-3.45-1.01-1.41-1.82-2.86-2.41-4.34s-.96-2.97-1.11-4.45c-2.92,3.86-6.78,7.09-11.58,9.69-4.8,2.6-10.02,3.9-15.66,3.9s-10.69-1.86-14.55-5.57-5.84-8.04-5.94-12.99Z"/>
    <path class="cls-1" d="M1199.24,1297.9h-20.63l-.22-1.63c-.15-1.09-.22-2.18-.22-3.27,0-3.96.05-10.5.15-19.63.1-9.13.15-15.7.15-19.71.1-7.27-.52-12.53-1.86-15.77-1.34-3.24-3.76-4.86-7.27-4.86-3.96,0-7.34.67-10.13,2-2.8,1.34-5.46,3.14-7.98,5.42,0,24.1.15,39.24.45,45.42.4,5.39.82,9.4,1.26,12.02h-21.3l.15-4.68.59-47.13c.05-3.91-.33-7.24-1.15-9.98s-1.71-4.65-2.67-5.71c-.96-1.06-1.87-1.77-2.71-2.12l-1.19-.59v-2.75c5.79-3.56,11.26-5.34,16.4-5.34,2.97,0,5.34.85,7.12,2.56s2.84,3.75,3.19,6.12l-.15,4.23c1.78-1.78,3.43-3.33,4.94-4.64,1.51-1.31,3.38-2.73,5.6-4.27,2.23-1.53,4.6-2.71,7.12-3.53s5.1-1.22,7.72-1.22c6.18,0,11.22,1.93,15.1,5.79,3.88,3.86,5.9,8.61,6.05,14.25-.2,10.69-.27,21.19-.22,31.51.05,10.32.62,19.48,1.71,27.5Z"/>
    <path class="cls-1" d="M1296.62,1291.96v3.34c-5.99,3.07-11.55,4.6-16.7,4.6-2.38,0-4.82-.73-7.35-2.19s-4.38-3.53-5.57-6.2c-6.58,5.59-13.41,8.39-20.48,8.39-4.06,0-7.88-.69-11.47-2.08-3.59-1.38-6.88-3.48-9.87-6.27-2.99-2.79-5.36-6.61-7.09-11.43-1.73-4.82-2.6-10.4-2.6-16.74,0-4.16.51-8.31,1.52-12.47,1.01-4.16,2.58-8.15,4.71-11.99,2.13-3.83,4.66-7.24,7.61-10.21,2.94-2.97,6.51-5.33,10.69-7.09,4.18-1.76,8.67-2.63,13.47-2.63,2.03,0,4.43.29,7.2.85,2.77.57,4.16.95,4.16,1.15,0-3.12-.03-6-.07-8.65-.05-2.65-.12-5.06-.22-7.24-.1-2.18-.31-4.12-.63-5.83-.32-1.71-.75-3.19-1.3-4.45-.54-1.26-1.29-2.33-2.23-3.19-.94-.87-2.08-1.52-3.41-1.97v-2.75l2.08-1.11c1.38-.79,3.34-1.56,5.86-2.3s4.95-1.11,7.27-1.11,4.06.2,5.49.59c1.43.4,2.73,1.16,3.9,2.3,1.16,1.14,2.02,2.8,2.56,4.97.54,2.18.82,4.97.82,8.39v1.93c0,.89-.12,4.26-.37,10.09-.25,5.84-.51,12.99-.78,21.45-.27,8.46-.41,16.35-.41,23.68,0,4.21.02,7.66.07,10.35.05,2.7.15,5.39.3,8.09.15,2.7.35,4.81.59,6.35.25,1.53.61,3.06,1.08,4.56.47,1.51,1,2.61,1.6,3.3.59.69,1.37,1.34,2.34,1.93s2.02.99,3.15,1.19c1.14.2,2.5.32,4.08.37ZM1254.39,1288.92c4.01,0,7.3-.92,9.87-2.75l.15-17.44v-37.85c-5.44-1.34-9.5-2-12.17-2-3.12,0-5.84.96-8.16,2.89-2.33,1.93-4.08,4.44-5.27,7.53-1.19,3.09-2.05,6.22-2.6,9.39-.54,3.17-.82,6.33-.82,9.5,0,9.65,1.76,17.18,5.27,22.6,3.51,5.42,8.09,8.13,13.73,8.13Z"/>
    <path class="cls-1" d="M1366.53,1255.52l-1.34.59c-2.52.99-5.94,1.48-10.24,1.48l-33.69-.45c.1,1.14.15,3.02.15,5.64.2,7.37,2.41,13.16,6.64,17.37,4.23,4.21,8.94,6.31,14.14,6.31,4.45,0,8.97-1.04,13.54-3.12s8.6-5.69,12.06-10.84c.84,3.22.84,6.3,0,9.24-.84,2.94-2.31,5.49-4.42,7.64s-4.64,4.03-7.61,5.64c-2.97,1.61-6.19,2.82-9.65,3.64-3.46.82-6.95,1.22-10.46,1.22-4.5,0-8.7-.71-12.58-2.12-3.88-1.41-7.41-3.54-10.58-6.38-3.17-2.84-5.68-6.67-7.53-11.47-1.86-4.8-2.81-10.32-2.86-16.55,0-8.16,1.4-15.56,4.19-22.19,2.79-6.63,6.83-11.89,12.1-15.77,5.27-3.88,11.29-5.83,18.07-5.83,3.96,0,7.53.48,10.72,1.45,3.19.96,5.81,2.18,7.87,3.64,2.05,1.46,3.83,3.25,5.34,5.38,1.51,2.13,2.65,4.13,3.41,6.01.77,1.88,1.36,3.97,1.78,6.27s.68,4.13.78,5.49c.1,1.36.15,2.76.15,4.19v3.49ZM1335.51,1228.88c-2.03,0-3.83.54-5.42,1.63-1.58,1.09-2.92,2.68-4.01,4.79-1.09,2.1-1.99,4.3-2.71,6.61-.72,2.3-1.37,5.01-1.97,8.13,2.92-.05,7.32-.2,13.21-.45,5.89-.25,10.44-.4,13.66-.45-.05-2.42-.32-4.79-.82-7.09-.5-2.3-1.24-4.46-2.23-6.49-.99-2.03-2.33-3.65-4.01-4.86-1.68-1.21-3.59-1.82-5.71-1.82Z"/>
    <path class="cls-1" d="M1460.57,1291.96v3.34c-5.99,3.07-11.55,4.6-16.7,4.6-2.38,0-4.82-.73-7.35-2.19s-4.38-3.53-5.57-6.2c-6.58,5.59-13.41,8.39-20.48,8.39-4.06,0-7.88-.69-11.47-2.08-3.59-1.38-6.88-3.48-9.87-6.27-2.99-2.79-5.36-6.61-7.09-11.43-1.73-4.82-2.6-10.4-2.6-16.74,0-4.16.51-8.31,1.52-12.47,1.01-4.16,2.58-8.15,4.71-11.99,2.13-3.83,4.66-7.24,7.61-10.21,2.94-2.97,6.51-5.33,10.69-7.09,4.18-1.76,8.67-2.63,13.47-2.63,2.03,0,4.43.29,7.2.85,2.77.57,4.16.95,4.16,1.15,0-3.12-.03-6-.07-8.65-.05-2.65-.12-5.06-.22-7.24-.1-2.18-.31-4.12-.63-5.83-.32-1.71-.75-3.19-1.3-4.45-.54-1.26-1.29-2.33-2.23-3.19-.94-.87-2.08-1.52-3.41-1.97v-2.75l2.08-1.11c1.38-.79,3.34-1.56,5.86-2.3s4.95-1.11,7.27-1.11,4.06.2,5.49.59c1.43.4,2.73,1.16,3.9,2.3,1.16,1.14,2.02,2.8,2.56,4.97.54,2.18.82,4.97.82,8.39v1.93c0,.89-.12,4.26-.37,10.09-.25,5.84-.51,12.99-.78,21.45-.27,8.46-.41,16.35-.41,23.68,0,4.21.02,7.66.07,10.35.05,2.7.15,5.39.3,8.09.15,2.7.35,4.81.59,6.35.25,1.53.61,3.06,1.08,4.56.47,1.51,1,2.61,1.6,3.3.59.69,1.37,1.34,2.34,1.93s2.02.99,3.15,1.19c1.14.2,2.5.32,4.08.37ZM1418.34,1288.92c4.01,0,7.3-.92,9.87-2.75l.15-17.44v-37.85c-5.44-1.34-9.5-2-12.17-2-3.12,0-5.84.96-8.16,2.89-2.33,1.93-4.08,4.44-5.27,7.53-1.19,3.09-2.05,6.22-2.6,9.39-.54,3.17-.82,6.33-.82,9.5,0,9.65,1.76,17.18,5.27,22.6,3.51,5.42,8.09,8.13,13.73,8.13Z"/>
    <path class="cls-1" d="M1511.33,1290.78l2.38-2.45c1.68-1.78,3.53-3.62,5.53-5.53,2-1.9,4.12-4.11,6.35-6.61,2.23-2.5,4.4-5.01,6.53-7.53,2.13-2.52,4.16-5.32,6.09-8.39,1.93-3.07,3.62-6.12,5.08-9.17,1.46-3.04,2.62-6.32,3.49-9.83.87-3.51,1.3-6.98,1.3-10.39,0-1.93-.17-3.72-.52-5.38-.35-1.66-.92-3.22-1.71-4.68-.79-1.46-1.91-2.61-3.34-3.45-1.44-.84-3.17-1.26-5.2-1.26-3.12,0-5.68.92-7.68,2.75-2,1.83-2.73,4.21-2.19,7.12-1.78,2.03-4.01,3.04-6.68,3.04-2.33,0-4.3-.68-5.94-2.04-1.63-1.36-2.45-3.25-2.45-5.68,0-4.35,2.63-7.83,7.9-10.43s11.54-3.9,18.81-3.9c5.29,0,9.95.64,13.95,1.93,4.01,1.29,7.12,3.03,9.35,5.23,2.23,2.2,3.87,4.58,4.94,7.12,1.06,2.55,1.6,5.23,1.6,8.05,0,4.11-.99,8.5-2.97,13.17-1.98,4.68-4.45,8.99-7.42,12.95-2.97,3.96-6.2,7.82-9.69,11.58-3.49,3.76-6.72,6.95-9.69,9.57-2.97,2.62-5.44,4.73-7.42,6.31l-2.97,2.38h27.98c4.4,0,7.63-.2,9.69-.59,2.05-.4,3.65-1.31,4.79-2.75.49,1.83.74,3.66.74,5.49,0,6.73-4.5,10.22-13.51,10.46h-47.13v-7.12Z"/>
    <path class="cls-1" d="M1588.34,1230.4c3.34-7.25,8.2-12.96,14.58-17.14,6.38-4.18,13.78-6.27,22.19-6.27,5.05,0,9.71.92,13.99,2.75,4.28,1.83,8.04,4.54,11.28,8.13,3.24,3.59,5.78,8.25,7.61,13.99,1.83,5.74,2.75,12.3,2.75,19.67,0,9.01-1.62,17.13-4.86,24.38-3.24,7.25-8.12,13.09-14.62,17.52-6.51,4.43-14.11,6.64-22.82,6.64-4.8,0-9.25-.87-13.36-2.6-4.11-1.73-7.82-4.35-11.13-7.87-3.32-3.51-5.91-8.23-7.79-14.14-1.88-5.91-2.82-12.73-2.82-20.45,0-9.15,1.67-17.35,5.01-24.6ZM1634.94,1228.99c-4.08-7.35-9.22-11.02-15.4-11.02-4.7,0-8.67,3.03-11.91,9.09-3.24,6.06-4.91,13.3-5.01,21.71.15,7.97,1.09,15.1,2.82,21.41,1.73,6.31,4.14,11.28,7.24,14.92,3.09,3.64,6.59,5.48,10.5,5.53,4.8-.15,8.98-3.38,12.54-9.69s5.34-14.19,5.34-23.64c0-11.53-2.04-20.97-6.12-28.31Z"/>
    <path class="cls-1" d="M1672.83,1290.78l2.38-2.45c1.68-1.78,3.53-3.62,5.53-5.53,2-1.9,4.12-4.11,6.35-6.61,2.23-2.5,4.4-5.01,6.53-7.53,2.13-2.52,4.16-5.32,6.09-8.39,1.93-3.07,3.62-6.12,5.08-9.17,1.46-3.04,2.62-6.32,3.49-9.83.87-3.51,1.3-6.98,1.3-10.39,0-1.93-.17-3.72-.52-5.38-.35-1.66-.92-3.22-1.71-4.68-.79-1.46-1.91-2.61-3.34-3.45-1.44-.84-3.17-1.26-5.2-1.26-3.12,0-5.68.92-7.68,2.75-2,1.83-2.73,4.21-2.19,7.12-1.78,2.03-4.01,3.04-6.68,3.04-2.33,0-4.3-.68-5.94-2.04-1.63-1.36-2.45-3.25-2.45-5.68,0-4.35,2.63-7.83,7.9-10.43s11.54-3.9,18.81-3.9c5.29,0,9.95.64,13.95,1.93,4.01,1.29,7.12,3.03,9.35,5.23,2.23,2.2,3.87,4.58,4.94,7.12,1.06,2.55,1.6,5.23,1.6,8.05,0,4.11-.99,8.5-2.97,13.17-1.98,4.68-4.45,8.99-7.42,12.95-2.97,3.96-6.2,7.82-9.69,11.58-3.49,3.76-6.72,6.95-9.69,9.57-2.97,2.62-5.44,4.73-7.42,6.31l-2.97,2.38h27.98c4.4,0,7.63-.2,9.69-.59,2.05-.4,3.65-1.31,4.79-2.75.49,1.83.74,3.66.74,5.49,0,6.73-4.5,10.22-13.51,10.46h-47.13v-7.12Z"/>
    <path class="cls-1" d="M1800.19,1235.11c3.27,1.09,6.22,2.73,8.87,4.94,2.65,2.2,4.71,5.16,6.2,8.87s2.23,7.99,2.23,12.84c0,6.78-1.4,13.03-4.19,18.74-2.8,5.71-6.99,10.38-12.58,13.99-5.59,3.61-12.05,5.42-19.37,5.42-4.65,0-8.89-.88-12.73-2.63-3.83-1.76-7.03-4.09-9.57-7.01-2.55-2.92-4.69-6.35-6.42-10.28-1.73-3.93-2.98-7.99-3.75-12.17-.77-4.18-1.15-8.5-1.15-12.95,0-6.23.47-12.06,1.41-17.48.94-5.42,2.2-10.13,3.79-14.14,1.58-4.01,3.48-7.63,5.68-10.87,2.2-3.24,4.55-5.94,7.05-8.09,2.5-2.15,5.15-3.96,7.94-5.42,2.79-1.46,5.53-2.5,8.2-3.12,2.67-.62,5.34-.93,8.02-.93,5.29,0,10.09.8,14.4,2.41,4.3,1.61,7.48,4.03,9.54,7.27,2.05,3.24,2.29,6.92.71,11.02-2.23-3.31-5.47-5.86-9.72-7.64-4.26-1.78-8.21-2.67-11.88-2.67-5.69,0-10.76,2.91-15.21,8.72-4.45,5.81-7.22,14.36-8.31,25.64,6.93-4.06,13.66-6.09,20.19-6.09,3.86,0,7.42.54,10.69,1.63ZM1793.96,1284.58c2.13-4.03,3.19-9.69,3.19-16.96,0-7.77-1.34-13.8-4.01-18.11s-6.41-6.46-11.21-6.46c-2.13,0-4.59.35-7.38,1.04-2.8.69-4.69,1.36-5.68,2v4.08c0,4.9.27,9.6.82,14.1.54,4.5,1.4,8.79,2.56,12.88,1.16,4.08,2.84,7.35,5.05,9.8,2.2,2.45,4.76,3.67,7.68,3.67,3.86,0,6.85-2.02,8.98-6.05Z"/>
  </g>
  <rect class="cls-1" x="1260.02" y="1102.24" width="172.87" height="17.29"/>
</svg>