<?xml version="1.0" encoding="UTF-8"?>
<svg id="Layer_1" data-name="Layer 1" xmlns="http://www.w3.org/2000/svg" viewBox="0 0 2692.91 1417.32">
  <defs>
    <style>
      .cls-1 {
        fill: #231f20;
      }
    </style>
  </defs>
  <g>
    <path class="cls-1" d="M561.56,110.56h89.45c35.09,0,68.08,16.1,68.08,60.69s-26.65,64.91-68.08,64.91h-40.37v62.8h-49.08V110.56ZM610.64,198.17h32.98c15.57,0,26.39-6.33,26.39-23.48s-11.35-24.8-26.39-24.8h-32.98v48.29Z"/>
    <path class="cls-1" d="M761.58,110.56h96.05c32.98,0,65.97,15.04,65.97,53.04,0,20.32-9.5,39.58-29.55,47.23v.53c19.79,5.01,26.12,27.18,27.44,45.12.79,8.18,1.32,35.09,7.92,42.48h-48.55c-4.22-6.6-4.75-24.54-5.54-30.08-1.32-19-4.22-38.53-27.44-38.53h-37.21v68.61h-49.08V110.56ZM810.66,192.36h41.16c14.78,0,22.69-7.65,22.69-22.17s-11.08-20.32-24.8-20.32h-39.05v42.48Z"/>
    <path class="cls-1" d="M1057.12,106.6c59.11,0,92.88,43.54,92.88,98.16s-33.78,98.16-92.88,98.16-92.88-43.54-92.88-98.16,33.78-98.16,92.88-98.16ZM1057.12,260.7c31.66,0,43.8-27.71,43.8-55.94s-12.14-55.94-43.8-55.94-43.8,27.71-43.8,55.94,12.14,55.94,43.8,55.94Z"/>
    <path class="cls-1" d="M1195.92,110.56h88.13c32.46-.79,68.08,8.18,68.08,47.23,0,16.89-10.03,30.61-24.8,38,20.05,6.07,32.46,23.22,32.46,44.59,0,44.86-32.98,58.58-73.36,58.58h-90.51V110.56ZM1245,184.71h38c8.44,0,20.05-4.49,20.05-17.94s-9.76-18.21-20.05-18.21h-38v36.15ZM1245,259.65h39.32c15.57,0,26.39-5.54,26.39-21.11,0-16.62-11.61-22.17-26.39-22.17h-39.32v43.27Z"/>
    <path class="cls-1" d="M1456.89,110.56h49.87l70.45,188.4h-51.19l-11.61-33.78h-65.7l-11.88,33.78h-50.4l70.45-188.4ZM1460.06,228.78h42.75l-20.85-65.97h-.53l-21.37,65.97Z"/>
    <path class="cls-1" d="M1610.73,110.56h88.13c32.46-.79,68.08,8.18,68.08,47.23,0,16.89-10.03,30.61-24.8,38,20.05,6.07,32.46,23.22,32.46,44.59,0,44.86-32.98,58.58-73.36,58.58h-90.51V110.56ZM1659.81,184.71h38c8.44,0,20.05-4.49,20.05-17.94s-9.76-18.21-20.05-18.21h-38v36.15ZM1659.81,259.65h39.32c15.57,0,26.39-5.54,26.39-21.11,0-16.62-11.61-22.17-26.39-22.17h-39.32v43.27Z"/>
    <path class="cls-1" d="M1820.51,110.56h49.08v146.18h87.87v42.22h-136.95V110.56Z"/>
    <path class="cls-1" d="M2062.74,228.78v70.19h-49.08v-70.19l-68.61-118.21h55.68l37.47,76.52,37.47-76.52h55.68l-68.61,118.21Z"/>
  </g>
  <g>
    <path class="cls-1" d="M231.31,959.93c-11.25,0-16.17-4.22-18.27-15.46l-89.96-471.6c-2.11-10.54,2.11-15.46,12.65-15.46h62.55c11.25,0,16.17,4.22,17.57,15.46l31.63,205.23c3.51,20.38,6.33,46.39,8.43,61.15h2.11c2.11-14.76,4.92-40.76,8.43-61.15l32.33-205.23c1.41-11.25,6.33-15.46,17.57-15.46h56.93c10.54,0,14.76,4.92,12.65,15.46l-92.07,471.6c-2.11,11.25-7.03,15.46-18.27,15.46h-44.28Z"/>
    <path class="cls-1" d="M447.77,472.86c0-11.25,4.22-15.46,15.46-15.46h66.07c11.25,0,15.46,4.22,15.46,15.46l-.7,35.84v399.91l.7,35.84c0,11.25-4.22,15.46-15.46,15.46h-66.07c-11.25,0-15.46-4.22-15.46-15.46l.7-35.84v-399.91l-.7-35.84Z"/>
    <path class="cls-1" d="M829.41,938.14c-19.68,20.38-47.09,30.22-85.04,30.22s-67.47-10.54-87.15-30.22c-27.41-27.41-37.25-76.61-37.25-163.06v-132.84c0-91.37,11.25-136.35,37.25-162.35,20.38-20.38,49.9-30.92,85.75-30.92s67.47,11.25,87.15,30.22c22.49,21.79,35.14,62.55,36.55,130.02,0,11.25-4.22,15.46-15.46,15.46h-63.26c-11.25,0-15.46-4.22-15.46-15.46,0-51.31-1.41-74.5-26.71-74.5-26.71,0-28.82,26-28.82,87.85v172.19c0,56.93,0,87.85,28.82,87.85,25.3,0,28.11-23.9,28.11-96.29,0-11.25,4.22-15.46,15.46-15.46h63.25c11.25,0,15.46,4.22,15.46,15.46-.7,86.45-16.17,128.62-38.66,151.81Z"/>
    <path class="cls-1" d="M1133.03,526.98c0,11.25-4.22,15.46-15.46,15.46h-45.68c-4.22,0-5.62,1.41-5.62,5.62v360.55l.7,35.84c0,11.25-4.22,15.46-15.46,15.46h-66.07c-11.25,0-15.46-4.22-15.46-15.46l.7-35.84v-360.55c0-4.22-1.41-5.62-5.62-5.62h-47.09c-11.25,0-15.46-4.22-15.46-15.46v-54.12c0-11.25,4.22-15.46,15.46-15.46h199.6c11.25,0,15.46,4.22,15.46,15.46v54.12Z"/>
    <path class="cls-1" d="M1303.11,968.36c-40.06,0-70.99-10.54-89.26-30.22-24.6-26-37.25-61.85-37.25-163.06v-132.84c0-101.21,12.65-137.05,37.25-163.06,18.27-18.98,49.2-30.22,89.26-30.22s70.99,11.25,89.26,30.22c24.6,26.71,37.95,61.85,37.95,163.06v132.84c0,101.21-12.65,137.05-37.95,163.06-18.27,19.68-48.5,30.22-89.26,30.22ZM1273.59,622.56v172.19c0,59.04,1.41,87.85,29.52,87.85s29.52-28.82,29.52-87.85v-172.19c0-59.04-2.81-87.85-29.52-87.85-28.11,0-29.52,28.82-29.52,87.85Z"/>
    <path class="cls-1" d="M1610.24,757.51h-4.22c-2.11,0-2.81.7-2.81,2.81v148.3l.7,35.84c0,11.25-4.22,15.46-15.46,15.46h-66.07c-11.25,0-15.46-4.22-15.46-15.46l.7-35.84v-399.91l-.7-35.84c0-11.25,4.22-15.46,15.46-15.46h92.07c107.53,0,137.75,61.85,137.75,137.05v1.41c0,87.85-30.92,108.24-67.47,119.48v3.51c29.52,8.43,65.36,27.41,66.77,109.64.7,53.42,1.41,81.53,9.84,116.67.7,2.81,1.41,6.33,1.41,9.14v.7c0,3.51-2.11,4.92-4.92,4.92h-75.2c-11.25,0-16.17-4.22-18.98-14.76-7.73-33.03-8.43-66.07-9.84-132.13-.7-33.03-14.76-55.52-43.58-55.52ZM1606.72,539.63c-2.11,0-3.51,1.41-3.51,3.51v123.7c0,2.81.7,3.51,3.51,3.51h4.22c35.84,0,44.98-25.3,44.98-63.96v-2.11c0-36.55-9.14-64.66-44.28-64.66h-4.92Z"/>
    <path class="cls-1" d="M1828.82,472.86c0-11.25,4.22-15.46,15.46-15.46h66.07c11.25,0,15.46,4.22,15.46,15.46l-.7,35.84v399.91l.7,35.84c0,11.25-4.22,15.46-15.46,15.46h-66.07c-11.25,0-15.46-4.22-15.46-15.46l.7-35.84v-399.91l-.7-35.84Z"/>
    <path class="cls-1" d="M2088.86,888.24c-4.22,0-5.62,1.41-6.33,5.62l-9.14,50.6c-2.11,11.25-7.03,15.46-18.27,15.46h-60.44c-10.54,0-14.76-4.92-11.95-14.76l101.21-473.01c2.81-10.54,7.73-14.76,18.98-14.76h44.28c11.25,0,16.17,4.22,18.98,14.76l102.61,473.01c2.81,9.84-1.41,14.76-11.95,14.76h-66.07c-11.25,0-16.17-4.22-18.27-15.46l-9.14-50.6c-.7-4.22-2.11-5.62-6.33-5.62h-68.17ZM2114.16,711.12l-15.46,87.85c-.7,4.22.7,5.62,4.92,5.62h39.36c4.22,0,5.62-1.41,4.92-5.62l-14.76-87.85c-3.51-20.38-6.33-46.39-8.43-61.15h-2.11c-2.11,14.76-4.92,40.76-8.43,61.15Z"/>
    <path class="cls-1" d="M2342.58,959.93c-11.25,0-15.46-4.22-15.46-15.46l.7-35.84v-399.91l-.7-35.84c0-11.25,4.22-15.46,15.46-15.46h31.63c11.25,0,16.87,3.51,21.08,14.06l63.25,154.62c11.95,27.41,12.65,33.03,20.38,52.01h2.81c-.7-16.87-1.41-41.47-1.41-59.04v-110.35l-.7-35.84c-.7-11.25,3.51-15.46,14.76-15.46h61.15c11.25,0,15.46,4.22,14.76,15.46l-.7,35.84v399.91l.7,35.84c.7,11.25-3.51,15.46-14.76,15.46h-29.52c-11.25,0-16.87-3.51-21.79-14.06l-68.88-165.17c-7.03-14.76-14.06-37.25-17.57-44.28h-2.81c1.41,16.17,2.11,40.76,2.11,59.04v113.16l.7,35.84c0,11.25-4.22,15.46-15.46,15.46h-59.74Z"/>
  </g>
  <g>
    <path class="cls-1" d="M901.07,1299.9c-10,0-18.57-2.14-25.72-6.42-7.15-4.28-12.51-10.16-16.07-17.63-3.56-7.47-5.34-16.18-5.34-26.12,0-16.08,4.76-29.19,14.29-39.34,9.52-10.14,21.98-15.21,37.37-15.21,7.17,0,13.78,1.29,19.82,3.86,6.04,2.57,9.97,5.74,11.8,9.5,0,1.93-1.09,4.66-3.27,8.2-2.18,3.54-4.87,6.02-8.09,7.46l-2.89-2.3c0-.84-.29-1.9-.85-3.19-.57-1.29-1.42-2.68-2.56-4.19-1.14-1.51-2.45-2.91-3.93-4.19-1.48-1.29-3.27-2.36-5.34-3.23-2.08-.87-4.23-1.3-6.46-1.3-4.55,0-8.6,1.03-12.13,3.08-3.54,2.05-6.37,4.86-8.5,8.42-2.13,3.56-3.74,7.53-4.82,11.91-1.09,4.38-1.63,9.04-1.63,13.99,0,6.09.64,11.78,1.93,17.07,1.29,5.29,3.18,10,5.68,14.1,2.5,4.11,5.75,7.34,9.76,9.69,4.01,2.35,8.56,3.53,13.66,3.53s10.5-1.47,16.37-4.42c5.86-2.94,10.08-6.89,12.65-11.84,1.83,5.29,1.24,10.19-1.78,14.7-3.02,4.5-7.58,7.97-13.69,10.39-6.11,2.42-12.85,3.59-20.22,3.49Z"/>
    <path class="cls-1" d="M975.66,1264.8c0,14.15.54,25.19,1.63,33.1h-21.3l.82-51.8c0-3.17-.27-5.97-.82-8.42-.54-2.45-1.16-4.27-1.86-5.46-.69-1.19-1.46-2.16-2.3-2.93-.84-.77-1.48-1.22-1.93-1.37s-.74-.22-.89-.22v-2.75c5.79-3.56,11.26-5.34,16.4-5.34,7.32,0,10.98,4.82,10.98,14.47,0,1.48-.12,4-.37,7.53-.25,3.54-.37,6.3-.37,8.28v14.92ZM954.21,1200.15c0-2.97,1.04-5.48,3.12-7.53,2.08-2.05,4.58-3.08,7.5-3.08s5.16,1.03,7.16,3.08c2,2.05,3.01,4.56,3.01,7.53s-1,5.22-3.01,7.2c-2,1.98-4.39,2.97-7.16,2.97-2.92,0-5.42-.99-7.5-2.97-2.08-1.98-3.12-4.38-3.12-7.2Z"/>
    <path class="cls-1" d="M1021.97,1297.9h-20.71c0-2.03.12-9.19.37-21.49.25-12.29.37-22.4.37-30.32,0-3.56-.29-6.61-.85-9.13-.57-2.52-1.34-4.4-2.3-5.64-.96-1.24-1.78-2.1-2.45-2.6-.67-.49-1.37-.84-2.12-1.04v-2.75c5.54-3.56,10.96-5.34,16.25-5.34,6.38,0,9.57,3.04,9.57,9.13,0,.15-.12,1.13-.37,2.93-.25,1.81-.42,3.2-.52,4.19,1.48-3.56,4.28-7.29,8.39-11.17,4.11-3.88,8.31-5.83,12.62-5.83s7.41,1.05,9.46,3.15c2.05,2.1,3.08,4.54,3.08,7.31s-.92,5.05-2.75,6.98c-1.83,1.93-4.21,2.89-7.12,2.89-.15,0-.41-.02-.78-.07-.37-.05-.66-.07-.85-.07-.79-4.01-3.12-6.01-6.98-6.01-2.42,0-4.53.54-6.31,1.63-1.78,1.09-3.18,2.5-4.19,4.23-1.01,1.73-1.82,3.95-2.41,6.64-.59,2.7-.98,5.32-1.15,7.87-.17,2.55-.26,5.53-.26,8.94,0,8.21.12,14.84.37,19.89.25,5.05.79,10.27,1.63,15.66Z"/>
    <path class="cls-1" d="M1057.97,1262.65c0-7.92,1.63-15.23,4.9-21.93,3.27-6.7,7.8-12.02,13.62-15.96,5.81-3.93,12.26-5.9,19.33-5.9s13.22,1.31,18.15,3.93c4.92,2.62,7.38,6.14,7.38,10.54,0,2.67-.96,4.91-2.89,6.72-1.93,1.81-4.16,2.71-6.68,2.71-2.72,0-5.05-1.11-6.98-3.34-.1-2.82-1.06-5.21-2.89-7.16-1.83-1.95-4.43-2.93-7.79-2.93s-6.46,1.4-9.13,4.19c-2.67,2.8-4.7,6.33-6.09,10.61-1.39,4.28-2.08,8.82-2.08,13.62s.78,9.43,2.34,13.73,3.95,7.88,7.16,10.72c3.22,2.85,6.93,4.27,11.13,4.27,10.49,0,18.75-4.55,24.79-13.66.59,1.88.89,3.66.89,5.34,0,4.06-1.45,7.76-4.34,11.1s-6.79,5.95-11.69,7.83-10.24,2.82-16.03,2.82c-4.65,0-8.94-.74-12.88-2.23s-7.42-3.71-10.46-6.68-5.43-6.87-7.16-11.69c-1.73-4.82-2.6-10.38-2.6-16.66Z"/>
    <path class="cls-1" d="M1191.86,1286.99c1.73,3.32,5.27,4.97,10.61,4.97v3.34c-1.88,1.19-4.5,2.25-7.87,3.19-3.37.94-6.41,1.41-9.13,1.41-3.27,0-6.12-1.24-8.57-3.71s-3.85-4.95-4.19-7.42c-1.78,3.51-4.61,6.25-8.5,8.2-3.88,1.95-7.73,2.93-11.54,2.93-7.52,0-13.26-1.99-17.22-5.97-3.96-3.98-5.94-8.7-5.94-14.14,0-4.8,1.5-9,4.49-12.62,2.99-3.61,6.89-6.33,11.69-8.16,4.8-1.83,10.09-2.75,15.88-2.75,3.12,0,6.21.4,9.28,1.19.2-4.25.3-7.4.3-9.43,0-3.02-.14-5.63-.41-7.83-.27-2.2-.78-4.29-1.52-6.27-.74-1.98-1.87-3.49-3.38-4.53-1.51-1.04-3.38-1.56-5.6-1.56-3.27,0-5.8,1.16-7.61,3.49-1.81,2.33-2.36,5.17-1.67,8.54-2.67,2.13-5.52,3.19-8.54,3.19-2.42,0-4.49-.74-6.2-2.23s-2.56-3.44-2.56-5.86c0-4.7,2.7-8.56,8.09-11.58,5.39-3.02,11.55-4.53,18.48-4.53,9.35,0,16.7,2.03,22.04,6.09,5.34,4.06,8.02,9.95,8.02,17.66,0,1.48-.05,4.5-.15,9.05-.1,4.55-.15,9.03-.15,13.43,0,12.02.62,19.32,1.86,21.89ZM1170.86,1262.94c-1.73.1-3.41.24-5.05.41-1.63.17-3.62.57-5.97,1.19-2.35.62-4.37,1.4-6.05,2.34-1.68.94-3.13,2.26-4.34,3.97-1.21,1.71-1.82,3.67-1.82,5.9,0,3.37,1.04,6.09,3.12,8.16s4.48,3.12,7.2,3.12c4.75,0,9.15-1.48,13.21-4.45-.2-4.55-.3-11.43-.3-20.63Z"/>
    <path class="cls-1" d="M1322.86,1301.69l-8.39-1.93c-3.96-.89-7.01-2.54-9.17-4.94-2.15-2.4-3.55-4.76-4.19-7.09-9.7-23.3-18.16-44.85-25.38-64.64.2,4.95.3,10.02.3,15.21-.25,26.62-.52,43.59-.82,50.91,0,3.51.27,6.41.82,8.68h-13.73l.37-3.19c.89-16.53,2.1-46.21,3.64-89.06-.74-1.34-1.48-2.45-2.23-3.34s-1.29-1.42-1.63-1.6c-.35-.17-.64-.36-.89-.56l1.41-3.19c4.06-1.43,8.56-2.15,13.51-2.15,5.99,0,10.19.87,12.62,2.6,1.68,6.68,6.04,19.07,13.06,37.18,7.03,18.11,13.01,32.73,17.96,43.86,2.42-6.28,5.32-14.4,8.68-24.34,3.36-9.95,5.64-16.43,6.83-19.45l12.25-32.51c.45-1.09,1.22-2.02,2.34-2.78,1.11-.77,2.29-1.36,3.53-1.78,1.24-.42,2.87-.77,4.9-1.04,2.03-.27,3.72-.46,5.08-.56,1.36-.1,3.22-.2,5.57-.3,2.35-.1,4-.17,4.94-.22-1.19,21.33-1.09,52.23.3,92.7.25,4.45.64,7.69,1.19,9.72h-22.93l.15-9.87c0-1.78.03-4.33.07-7.64.05-3.31.07-5.74.07-7.27,0-23.25-.1-37.18-.3-41.79l-.45-8.68-2.45,8.54-23.08,56.55c-.5,1.48-1.18,3.86-2.04,7.12-.87,3.27-1.5,5.54-1.89,6.83Z"/>
    <path class="cls-1" d="M1463.13,1301.69l-8.39-1.93c-3.96-.89-7.01-2.54-9.17-4.94-2.15-2.4-3.55-4.76-4.19-7.09-9.7-23.3-18.16-44.85-25.38-64.64.2,4.95.3,10.02.3,15.21-.25,26.62-.52,43.59-.82,50.91,0,3.51.27,6.41.82,8.68h-13.73l.37-3.19c.89-16.53,2.1-46.21,3.64-89.06-.74-1.34-1.48-2.45-2.23-3.34s-1.29-1.42-1.63-1.6c-.35-.17-.64-.36-.89-.56l1.41-3.19c4.06-1.43,8.56-2.15,13.51-2.15,5.99,0,10.19.87,12.62,2.6,1.68,6.68,6.04,19.07,13.06,37.18,7.03,18.11,13.01,32.73,17.96,43.86,2.42-6.28,5.32-14.4,8.68-24.34,3.36-9.95,5.64-16.43,6.83-19.45l12.25-32.51c.45-1.09,1.22-2.02,2.34-2.78,1.11-.77,2.29-1.36,3.53-1.78,1.24-.42,2.87-.77,4.9-1.04,2.03-.27,3.72-.46,5.08-.56,1.36-.1,3.22-.2,5.57-.3,2.35-.1,4-.17,4.94-.22-1.19,21.33-1.09,52.23.3,92.7.25,4.45.64,7.69,1.19,9.72h-22.93l.15-9.87c0-1.78.02-4.33.07-7.64.05-3.31.07-5.74.07-7.27,0-23.25-.1-37.18-.3-41.79l-.45-8.68-2.45,8.54-23.08,56.55c-.5,1.48-1.18,3.86-2.04,7.12-.87,3.27-1.5,5.54-1.89,6.83Z"/>
    <path class="cls-1" d="M1535.12,1290.48l27.54-40.15-15.66-28.13c-1.14-2.08-2.42-4.43-3.86-7.05-1.44-2.62-2.44-4.44-3.01-5.46-.57-1.01-1.26-2.19-2.08-3.53s-1.48-2.28-2-2.82c-.52-.54-1.13-1.1-1.82-1.67-.69-.57-1.51-1.08-2.45-1.52l1.34-3.19c4.16-1.43,8.83-2.15,14.03-2.15,5.64,0,9.6,1.14,11.88,3.41.54,1.24,1.35,3.08,2.41,5.53,1.06,2.45,1.94,4.37,2.63,5.75.69,1.39,2.13,4.12,4.3,8.2,2.18,4.08,5.07,9.34,8.68,15.77l.3-.89c.2-.64.57-1.36,1.11-2.15l8.46-12.77c3.36-5,5.05-8.96,5.05-11.88,0-2.38-.67-4.3-2-5.79l1.41-3.04c2.97-1.43,6.26-2.15,9.87-2.15s6.75.72,9.72,2.15c-.45,2.77-1.77,6.25-3.97,10.43-2.2,4.18-4.47,7.95-6.79,11.32l-17.96,25.98,23.08,42.3c1.19,2.13,2.87,4.48,5.05,7.05l3.19,3.86h-25.53l-19.45-36.66-2.75,4.75-15.81,23.68c-.94,1.78-1.73,3.59-2.38,5.42l-.96,2.82h-16.92l5.34-7.42Z"/>
    <path class="cls-1" d="M1618.99,1290.48l27.54-40.15-15.66-28.13c-1.14-2.08-2.42-4.43-3.86-7.05-1.44-2.62-2.44-4.44-3.01-5.46-.57-1.01-1.26-2.19-2.08-3.53s-1.48-2.28-2-2.82c-.52-.54-1.13-1.1-1.82-1.67-.69-.57-1.51-1.08-2.45-1.52l1.34-3.19c4.16-1.43,8.83-2.15,14.03-2.15,5.64,0,9.6,1.14,11.88,3.41.54,1.24,1.35,3.08,2.41,5.53,1.06,2.45,1.94,4.37,2.63,5.75.69,1.39,2.13,4.12,4.3,8.2,2.18,4.08,5.07,9.34,8.68,15.77l.3-.89c.2-.64.57-1.36,1.11-2.15l8.46-12.77c3.36-5,5.05-8.96,5.05-11.88,0-2.38-.67-4.3-2-5.79l1.41-3.04c2.97-1.43,6.26-2.15,9.87-2.15s6.75.72,9.72,2.15c-.45,2.77-1.77,6.25-3.97,10.43-2.2,4.18-4.47,7.95-6.79,11.32l-17.96,25.98,23.08,42.3c1.19,2.13,2.87,4.48,5.05,7.05l3.19,3.86h-25.53l-19.45-36.66-2.75,4.75-15.81,23.68c-.94,1.78-1.73,3.59-2.38,5.42l-.96,2.82h-16.92l5.34-7.42Z"/>
    <path class="cls-1" d="M1745.9,1299.76c-2.13-.45-4.03-1.16-5.71-2.15-1.68-.99-3.03-2.1-4.04-3.34-1.01-1.24-1.81-2.39-2.38-3.45-.57-1.06-1-2.09-1.3-3.08l-23.53-65.83c-1.34-4.16-2.68-7.77-4.04-10.84-1.36-3.07-2.56-5.32-3.6-6.75-1.04-1.43-1.87-2.46-2.49-3.08-.62-.62-1.1-.98-1.45-1.08l1.41-3.19c4.21-1.43,8.76-2.15,13.66-2.15,5.79,0,9.95,1.14,12.47,3.41,1.93,9.3,6.13,23.53,12.62,42.68,6.48,19.15,11.28,32.58,14.4,40.3,1.78-7.27,5.63-18.31,11.54-33.1,5.91-14.79,9.73-24.89,11.47-30.28,1.29-4.4,1.93-7.59,1.93-9.57,0-3.51-1.11-6.46-3.34-8.83l.96-2.45c3.61-1.43,6.9-2.15,9.87-2.15,3.27,0,6.36.72,9.28,2.15-.15,2.72-.73,6.19-1.74,10.39-1.01,4.21-2.07,7.64-3.15,10.32l-29.17,70.06-4.08,13.95-9.57-1.93Z"/>
    <path class="cls-1" d="M1808.76,1297.9c.2-6.73.3-33.94.3-81.64,0-2.72-.12-5.05-.37-6.98-.25-1.93-.57-3.38-.96-4.34-.4-.96-.83-1.87-1.3-2.71-.47-.84-.95-1.53-1.45-2.08l1.19-3.19,1.78-.52c1.24-.35,2.98-.71,5.23-1.08,2.25-.37,4.42-.56,6.49-.56,5.1,0,9,.67,11.73,2-1.04,18.51-1.56,38.57-1.56,60.19,0,24.64.62,38.27,1.86,40.89h-22.93Z"/>
  </g>
  <rect class="cls-1" x="1260.02" y="1102.24" width="172.87" height="17.29"/>
</svg>