<?xml version="1.0" encoding="UTF-8"?>
<svg id="Layer_1" data-name="Layer 1" xmlns="http://www.w3.org/2000/svg" viewBox="0 0 2692.91 1417.32">
  <defs>
    <style>
      .cls-1 {
        fill: #231f20;
      }
    </style>
  </defs>
  <g>
    <path class="cls-1" d="M561.56,110.56h89.45c35.09,0,68.08,16.1,68.08,60.69s-26.65,64.91-68.08,64.91h-40.37v62.8h-49.08V110.56ZM610.64,198.17h32.98c15.57,0,26.39-6.33,26.39-23.48s-11.35-24.8-26.39-24.8h-32.98v48.29Z"/>
    <path class="cls-1" d="M761.58,110.56h96.05c32.98,0,65.97,15.04,65.97,53.04,0,20.32-9.5,39.58-29.55,47.23v.53c19.79,5.01,26.12,27.18,27.44,45.12.79,8.18,1.32,35.09,7.92,42.48h-48.55c-4.22-6.6-4.75-24.54-5.54-30.08-1.32-19-4.22-38.53-27.44-38.53h-37.21v68.61h-49.08V110.56ZM810.66,192.36h41.16c14.78,0,22.69-7.65,22.69-22.17s-11.08-20.32-24.8-20.32h-39.05v42.48Z"/>
    <path class="cls-1" d="M1057.12,106.6c59.11,0,92.88,43.54,92.88,98.16s-33.78,98.16-92.88,98.16-92.88-43.54-92.88-98.16,33.78-98.16,92.88-98.16ZM1057.12,260.7c31.66,0,43.8-27.71,43.8-55.94s-12.14-55.94-43.8-55.94-43.8,27.71-43.8,55.94,12.14,55.94,43.8,55.94Z"/>
    <path class="cls-1" d="M1195.92,110.56h88.13c32.46-.79,68.08,8.18,68.08,47.23,0,16.89-10.03,30.61-24.8,38,20.05,6.07,32.46,23.22,32.46,44.59,0,44.86-32.98,58.58-73.36,58.58h-90.51V110.56ZM1245,184.71h38c8.44,0,20.05-4.49,20.05-17.94s-9.76-18.21-20.05-18.21h-38v36.15ZM1245,259.65h39.32c15.57,0,26.39-5.54,26.39-21.11,0-16.62-11.61-22.17-26.39-22.17h-39.32v43.27Z"/>
    <path class="cls-1" d="M1456.89,110.56h49.87l70.45,188.4h-51.19l-11.61-33.78h-65.7l-11.88,33.78h-50.4l70.45-188.4ZM1460.06,228.78h42.75l-20.85-65.97h-.53l-21.37,65.97Z"/>
    <path class="cls-1" d="M1610.73,110.56h88.13c32.46-.79,68.08,8.18,68.08,47.23,0,16.89-10.03,30.61-24.8,38,20.05,6.07,32.46,23.22,32.46,44.59,0,44.86-32.98,58.58-73.36,58.58h-90.51V110.56ZM1659.81,184.71h38c8.44,0,20.05-4.49,20.05-17.94s-9.76-18.21-20.05-18.21h-38v36.15ZM1659.81,259.65h39.32c15.57,0,26.39-5.54,26.39-21.11,0-16.62-11.61-22.17-26.39-22.17h-39.32v43.27Z"/>
    <path class="cls-1" d="M1820.51,110.56h49.08v146.18h87.87v42.22h-136.95V110.56Z"/>
    <path class="cls-1" d="M2062.74,228.78v70.19h-49.08v-70.19l-68.61-118.21h55.68l37.47,76.52,37.47-76.52h55.68l-68.61,118.21Z"/>
  </g>
  <g>
    <path class="cls-1" d="M231.31,959.93c-11.25,0-16.17-4.22-18.27-15.46l-89.96-471.6c-2.11-10.54,2.11-15.46,12.65-15.46h62.55c11.25,0,16.17,4.22,17.57,15.46l31.63,205.23c3.51,20.38,6.33,46.39,8.43,61.15h2.11c2.11-14.76,4.92-40.76,8.43-61.15l32.33-205.23c1.41-11.25,6.33-15.46,17.57-15.46h56.93c10.54,0,14.76,4.92,12.65,15.46l-92.07,471.6c-2.11,11.25-7.03,15.46-18.27,15.46h-44.28Z"/>
    <path class="cls-1" d="M447.77,472.86c0-11.25,4.22-15.46,15.46-15.46h66.07c11.25,0,15.46,4.22,15.46,15.46l-.7,35.84v399.91l.7,35.84c0,11.25-4.22,15.46-15.46,15.46h-66.07c-11.25,0-15.46-4.22-15.46-15.46l.7-35.84v-399.91l-.7-35.84Z"/>
    <path class="cls-1" d="M829.41,938.14c-19.68,20.38-47.09,30.22-85.04,30.22s-67.47-10.54-87.15-30.22c-27.41-27.41-37.25-76.61-37.25-163.06v-132.84c0-91.37,11.25-136.35,37.25-162.35,20.38-20.38,49.9-30.92,85.75-30.92s67.47,11.25,87.15,30.22c22.49,21.79,35.14,62.55,36.55,130.02,0,11.25-4.22,15.46-15.46,15.46h-63.26c-11.25,0-15.46-4.22-15.46-15.46,0-51.31-1.41-74.5-26.71-74.5-26.71,0-28.82,26-28.82,87.85v172.19c0,56.93,0,87.85,28.82,87.85,25.3,0,28.11-23.9,28.11-96.29,0-11.25,4.22-15.46,15.46-15.46h63.25c11.25,0,15.46,4.22,15.46,15.46-.7,86.45-16.17,128.62-38.66,151.81Z"/>
    <path class="cls-1" d="M1133.03,526.98c0,11.25-4.22,15.46-15.46,15.46h-45.68c-4.22,0-5.62,1.41-5.62,5.62v360.55l.7,35.84c0,11.25-4.22,15.46-15.46,15.46h-66.07c-11.25,0-15.46-4.22-15.46-15.46l.7-35.84v-360.55c0-4.22-1.41-5.62-5.62-5.62h-47.09c-11.25,0-15.46-4.22-15.46-15.46v-54.12c0-11.25,4.22-15.46,15.46-15.46h199.6c11.25,0,15.46,4.22,15.46,15.46v54.12Z"/>
    <path class="cls-1" d="M1303.11,968.36c-40.06,0-70.99-10.54-89.26-30.22-24.6-26-37.25-61.85-37.25-163.06v-132.84c0-101.21,12.65-137.05,37.25-163.06,18.27-18.98,49.2-30.22,89.26-30.22s70.99,11.25,89.26,30.22c24.6,26.71,37.95,61.85,37.95,163.06v132.84c0,101.21-12.65,137.05-37.95,163.06-18.27,19.68-48.5,30.22-89.26,30.22ZM1273.59,622.56v172.19c0,59.04,1.41,87.85,29.52,87.85s29.52-28.82,29.52-87.85v-172.19c0-59.04-2.81-87.85-29.52-87.85-28.11,0-29.52,28.82-29.52,87.85Z"/>
    <path class="cls-1" d="M1610.24,757.51h-4.22c-2.11,0-2.81.7-2.81,2.81v148.3l.7,35.84c0,11.25-4.22,15.46-15.46,15.46h-66.07c-11.25,0-15.46-4.22-15.46-15.46l.7-35.84v-399.91l-.7-35.84c0-11.25,4.22-15.46,15.46-15.46h92.07c107.53,0,137.75,61.85,137.75,137.05v1.41c0,87.85-30.92,108.24-67.47,119.48v3.51c29.52,8.43,65.36,27.41,66.77,109.64.7,53.42,1.41,81.53,9.84,116.67.7,2.81,1.41,6.33,1.41,9.14v.7c0,3.51-2.11,4.92-4.92,4.92h-75.2c-11.25,0-16.17-4.22-18.98-14.76-7.73-33.03-8.43-66.07-9.84-132.13-.7-33.03-14.76-55.52-43.58-55.52ZM1606.72,539.63c-2.11,0-3.51,1.41-3.51,3.51v123.7c0,2.81.7,3.51,3.51,3.51h4.22c35.84,0,44.98-25.3,44.98-63.96v-2.11c0-36.55-9.14-64.66-44.28-64.66h-4.92Z"/>
    <path class="cls-1" d="M1828.82,472.86c0-11.25,4.22-15.46,15.46-15.46h66.07c11.25,0,15.46,4.22,15.46,15.46l-.7,35.84v399.91l.7,35.84c0,11.25-4.22,15.46-15.46,15.46h-66.07c-11.25,0-15.46-4.22-15.46-15.46l.7-35.84v-399.91l-.7-35.84Z"/>
    <path class="cls-1" d="M2088.86,888.24c-4.22,0-5.62,1.41-6.33,5.62l-9.14,50.6c-2.11,11.25-7.03,15.46-18.27,15.46h-60.44c-10.54,0-14.76-4.92-11.95-14.76l101.21-473.01c2.81-10.54,7.73-14.76,18.98-14.76h44.28c11.25,0,16.17,4.22,18.98,14.76l102.61,473.01c2.81,9.84-1.41,14.76-11.95,14.76h-66.07c-11.25,0-16.17-4.22-18.27-15.46l-9.14-50.6c-.7-4.22-2.11-5.62-6.33-5.62h-68.17ZM2114.16,711.12l-15.46,87.85c-.7,4.22.7,5.62,4.92,5.62h39.36c4.22,0,5.62-1.41,4.92-5.62l-14.76-87.85c-3.51-20.38-6.33-46.39-8.43-61.15h-2.11c-2.11,14.76-4.92,40.76-8.43,61.15Z"/>
    <path class="cls-1" d="M2342.58,959.93c-11.25,0-15.46-4.22-15.46-15.46l.7-35.84v-399.91l-.7-35.84c0-11.25,4.22-15.46,15.46-15.46h31.63c11.25,0,16.87,3.51,21.08,14.06l63.25,154.62c11.95,27.41,12.65,33.03,20.38,52.01h2.81c-.7-16.87-1.41-41.47-1.41-59.04v-110.35l-.7-35.84c-.7-11.25,3.51-15.46,14.76-15.46h61.15c11.25,0,15.46,4.22,14.76,15.46l-.7,35.84v399.91l.7,35.84c.7,11.25-3.51,15.46-14.76,15.46h-29.52c-11.25,0-16.87-3.51-21.79-14.06l-68.88-165.17c-7.03-14.76-14.06-37.25-17.57-44.28h-2.81c1.41,16.17,2.11,40.76,2.11,59.04v113.16l.7,35.84c0,11.25-4.22,15.46-15.46,15.46h-59.74Z"/>
  </g>
  <g>
    <path class="cls-1" d="M723.24,1216.26c0-3.91-.25-7.05-.74-9.43h-13.36c-3.61,0-6.64.77-9.09,2.3-2.45,1.53-3.85,3.46-4.19,5.79h-3.49c-.59-2.52-.95-4.71-1.08-6.57s.11-3.91.71-6.16c.59-2.25,1.68-4.34,3.27-6.27l23.16,1.04h30.65l23.16-1.04c1.58,1.93,2.67,4.02,3.27,6.27.59,2.25.82,4.3.67,6.16s-.52,4.04-1.11,6.57h-3.49c-.3-2.33-1.67-4.25-4.12-5.79-2.45-1.53-5.48-2.3-9.09-2.3h-13.36c-.59,13.36-.89,30.08-.89,50.17,0,24.74.59,38.37,1.78,40.89h-22.93c.2-6.73.3-33.94.3-81.64Z"/>
    <path class="cls-1" d="M896.02,1238.6l-21.6,50.77-3.64,12.62-5.34-1.48c-3.71-.69-6.58-2.2-8.61-4.53-2.03-2.33-3.27-4.53-3.71-6.61l-12.62-40.38-16.7,40.38-3.64,12.62-5.34-1.48c-3.71-.69-6.58-2.21-8.61-4.56-2.03-2.35-3.27-4.54-3.71-6.57l-13.21-42.23c-1.19-3.81-2.54-7.14-4.04-9.98-1.51-2.84-2.91-4.91-4.19-6.2-1.29-1.29-2.3-2.2-3.04-2.75-.74-.54-1.29-.87-1.63-.96l-.15-2.75c1.78-1.29,3.98-2.42,6.61-3.41,2.62-.99,5.07-1.48,7.35-1.48,4.25,0,7.38,1.01,9.39,3.04,2,2.03,3.6,5.27,4.79,9.72.99,5.74,4.95,18.31,11.88,37.7.05.15.57,1.39,1.56,3.71.99,2.33,1.53,3.64,1.63,3.93l.59-3.12c.4-2.13.84-3.88,1.34-5.27l10.69-27.39c.69-1.63,1.34-4.01,1.93-7.12-.4-.74-.82-1.45-1.26-2.12s-.84-1.24-1.19-1.71c-.35-.47-.73-.92-1.15-1.34-.42-.42-.77-.74-1.04-.96-.27-.22-.57-.45-.89-.67-.32-.22-.56-.37-.71-.45s-.3-.14-.45-.19l-.3-.15-.15-2.75c1.78-1.29,3.98-2.42,6.61-3.41,2.62-.99,5.07-1.48,7.35-1.48,4.25,0,7.38,1.01,9.39,3.04,2,2.03,3.6,5.27,4.79,9.72.99,5.74,4.95,18.31,11.88,37.7,1.48,3.76,2.55,6.31,3.19,7.64,0-.35.2-1.47.59-3.38.4-1.9.84-3.57,1.34-5.01l10.39-27.39c1.38-3.91,2.08-7.1,2.08-9.57s-.87-4.13-2.6-5.12v-2.75c1.43-1.34,3.33-2.49,5.68-3.45,2.35-.96,4.56-1.45,6.64-1.45,3.76,0,5.64,1.88,5.64,5.64,0,2.62-1.26,7.08-3.79,13.36Z"/>
    <path class="cls-1" d="M971.06,1255.52l-1.34.59c-2.52.99-5.94,1.48-10.24,1.48l-33.7-.45c.1,1.14.15,3.02.15,5.64.2,7.37,2.41,13.16,6.64,17.37,4.23,4.21,8.94,6.31,14.14,6.31,4.45,0,8.97-1.04,13.54-3.12,4.58-2.08,8.6-5.69,12.06-10.84.84,3.22.84,6.3,0,9.24-.84,2.94-2.31,5.49-4.42,7.64-2.1,2.15-4.64,4.03-7.61,5.64-2.97,1.61-6.19,2.82-9.65,3.64-3.46.82-6.95,1.22-10.46,1.22-4.5,0-8.7-.71-12.58-2.12-3.88-1.41-7.41-3.54-10.58-6.38-3.17-2.84-5.68-6.67-7.53-11.47-1.86-4.8-2.81-10.32-2.86-16.55,0-8.16,1.4-15.56,4.19-22.19,2.79-6.63,6.83-11.89,12.1-15.77,5.27-3.88,11.29-5.83,18.07-5.83,3.96,0,7.53.48,10.72,1.45s5.81,2.18,7.87,3.64c2.05,1.46,3.83,3.25,5.34,5.38,1.51,2.13,2.65,4.13,3.41,6.01.77,1.88,1.36,3.97,1.78,6.27.42,2.3.68,4.13.78,5.49.1,1.36.15,2.76.15,4.19v3.49ZM940.04,1228.88c-2.03,0-3.83.54-5.42,1.63-1.58,1.09-2.92,2.68-4.01,4.79-1.09,2.1-1.99,4.3-2.71,6.61-.72,2.3-1.37,5.01-1.97,8.13,2.92-.05,7.32-.2,13.21-.45,5.89-.25,10.44-.4,13.66-.45-.05-2.42-.32-4.79-.82-7.09-.5-2.3-1.24-4.46-2.23-6.49-.99-2.03-2.33-3.65-4.01-4.86-1.68-1.21-3.59-1.82-5.71-1.82Z"/>
    <path class="cls-1" d="M1059.01,1297.9h-20.63l-.22-1.63c-.15-1.09-.22-2.18-.22-3.27,0-3.96.05-10.5.15-19.63.1-9.13.15-15.7.15-19.71.1-7.27-.52-12.53-1.86-15.77-1.34-3.24-3.76-4.86-7.27-4.86-3.96,0-7.34.67-10.13,2-2.8,1.34-5.46,3.14-7.98,5.42,0,24.1.15,39.24.45,45.42.4,5.39.82,9.4,1.26,12.02h-21.3l.15-4.68.59-47.13c.05-3.91-.33-7.24-1.15-9.98s-1.71-4.65-2.67-5.71c-.96-1.06-1.87-1.77-2.71-2.12l-1.19-.59v-2.75c5.79-3.56,11.26-5.34,16.4-5.34,2.97,0,5.34.85,7.12,2.56s2.84,3.75,3.19,6.12l-.15,4.23c1.78-1.78,3.43-3.33,4.94-4.64,1.51-1.31,3.38-2.73,5.6-4.27,2.23-1.53,4.6-2.71,7.12-3.53s5.1-1.22,7.72-1.22c6.18,0,11.22,1.93,15.1,5.79,3.88,3.86,5.9,8.61,6.05,14.25-.2,10.69-.27,21.19-.22,31.51.05,10.32.62,19.48,1.71,27.5Z"/>
    <path class="cls-1" d="M1103.54,1208.54l-1.71,12.62h14.18c1.48,0,3.08-.19,4.79-.56s2.78-1,3.23-1.89c.3,1.04.45,2.25.45,3.64,0,6.09-4.35,9.13-13.06,9.13-.79,0-2.44-.07-4.94-.22-2.5-.15-4.19-.22-5.08-.22v34.21c-.05,1.44-.05,2.94,0,4.53.05,1.58.11,3.15.19,4.71s.32,3.04.74,4.45c.42,1.41.95,2.65,1.6,3.71.64,1.06,1.57,1.92,2.78,2.56,1.21.64,2.63.96,4.27.96,3.07,0,6.26-.51,9.57-1.52,3.31-1.01,5.39-2.36,6.23-4.04,1.29,3.17,1.01,6.27-.82,9.31-1.83,3.04-4.69,5.47-8.57,7.27-3.88,1.81-8.05,2.71-12.51,2.71s-8.5-.54-11.54-1.63-5.36-2.77-6.94-5.05c-1.58-2.28-2.67-4.84-3.27-7.68-.59-2.84-.89-6.37-.89-10.58,0-3.76.25-9.35.74-16.77.49-7.42.74-12.84.74-16.25,0-5.84-.45-9.33-1.34-10.46-2.03-2.57-4.55-4.4-7.57-5.49l.74-4.53c.45,0,1.04-.1,1.78-.3.74-.2,1.89-.66,3.45-1.37,1.56-.72,3.29-2.04,5.2-3.97,1.9-1.93,3.7-4.35,5.38-7.27h12.17Z"/>
    <path class="cls-1" d="M1164.55,1297.75l-1.78-.74c-1.19-.45-2.51-1.37-3.97-2.78-1.46-1.41-2.46-3.03-3.01-4.86l-13.29-42.23c-.94-3.12-2.02-5.91-3.23-8.39-1.21-2.47-2.33-4.39-3.34-5.75-1.01-1.36-2.02-2.5-3.01-3.41-.99-.92-1.73-1.52-2.23-1.82-.5-.3-.87-.47-1.11-.52l-.15-2.75c1.78-1.29,4-2.42,6.64-3.41,2.65-.99,5.11-1.48,7.38-1.48,4.25,0,7.37,1.01,9.35,3.04,1.98,2.03,3.56,5.27,4.75,9.72.99,5.74,4.95,18.31,11.88,37.7.1.2.71,1.45,1.82,3.75s1.72,3.6,1.82,3.9l.74-3.12c.49-2.13,1.01-3.88,1.56-5.27l9.57-27.39c1.38-3.91,2.08-7.1,2.08-9.57s-.84-4.13-2.52-5.12l-.3-2.75c1.38-1.34,3.25-2.49,5.6-3.45,2.35-.96,4.56-1.45,6.64-1.45,3.56,0,5.34,1.88,5.34,5.64,0,2.62-1.26,7.08-3.79,13.36l-30.28,74.52c-1.09,2.67-2,4.84-2.75,6.49-.74,1.66-1.71,3.61-2.89,5.86-1.19,2.25-2.39,4.04-3.6,5.38-1.21,1.34-2.63,2.67-4.27,4.01s-3.46,2.3-5.49,2.89c-2.03.59-4.26.89-6.68.89-4.55,0-8.13-1.73-10.72-5.2-2.6-3.46-3.38-7.77-2.34-12.91.99,1.24,2.58,2.25,4.79,3.04,2.2.79,4.42,1.19,6.64,1.19,3.76,0,6.96-.71,9.61-2.12,2.65-1.41,4.51-3.43,5.6-6.05l7.12-15.66,1.78-3.19Z"/>
    <path class="cls-1" d="M1280.92,1216.26c0-3.91-.25-7.05-.74-9.43h-13.36c-3.61,0-6.64.77-9.09,2.3-2.45,1.53-3.85,3.46-4.19,5.79h-3.49c-.59-2.52-.95-4.71-1.08-6.57s.11-3.91.71-6.16c.59-2.25,1.68-4.34,3.27-6.27l23.16,1.04h30.65l23.16-1.04c1.58,1.93,2.67,4.02,3.27,6.27.59,2.25.82,4.3.67,6.16s-.52,4.04-1.11,6.57h-3.49c-.3-2.33-1.67-4.25-4.12-5.79-2.45-1.53-5.48-2.3-9.09-2.3h-13.36c-.59,13.36-.89,30.08-.89,50.17,0,24.74.59,38.37,1.78,40.89h-22.93c.2-6.73.3-33.94.3-81.64Z"/>
    <path class="cls-1" d="M1453.7,1238.6l-21.6,50.77-3.64,12.62-5.34-1.48c-3.71-.69-6.58-2.2-8.61-4.53s-3.27-4.53-3.71-6.61l-12.62-40.38-16.7,40.38-3.64,12.62-5.34-1.48c-3.71-.69-6.58-2.21-8.61-4.56s-3.27-4.54-3.71-6.57l-13.21-42.23c-1.19-3.81-2.54-7.14-4.04-9.98-1.51-2.84-2.91-4.91-4.19-6.2-1.29-1.29-2.3-2.2-3.04-2.75-.74-.54-1.29-.87-1.63-.96l-.15-2.75c1.78-1.29,3.98-2.42,6.61-3.41,2.62-.99,5.07-1.48,7.35-1.48,4.25,0,7.38,1.01,9.39,3.04,2,2.03,3.6,5.27,4.79,9.72.99,5.74,4.95,18.31,11.88,37.7.05.15.57,1.39,1.56,3.71.99,2.33,1.53,3.64,1.63,3.93l.59-3.12c.4-2.13.84-3.88,1.34-5.27l10.69-27.39c.69-1.63,1.34-4.01,1.93-7.12-.4-.74-.82-1.45-1.26-2.12s-.84-1.24-1.19-1.71c-.35-.47-.73-.92-1.15-1.34-.42-.42-.77-.74-1.04-.96s-.57-.45-.89-.67-.56-.37-.71-.45-.3-.14-.45-.19l-.3-.15-.15-2.75c1.78-1.29,3.98-2.42,6.61-3.41,2.62-.99,5.07-1.48,7.35-1.48,4.26,0,7.38,1.01,9.39,3.04,2,2.03,3.6,5.27,4.79,9.72.99,5.74,4.95,18.31,11.88,37.7,1.48,3.76,2.55,6.31,3.19,7.64,0-.35.2-1.47.59-3.38.4-1.9.84-3.57,1.34-5.01l10.39-27.39c1.38-3.91,2.08-7.1,2.08-9.57s-.87-4.13-2.6-5.12v-2.75c1.44-1.34,3.33-2.49,5.68-3.45s4.56-1.45,6.64-1.45c3.76,0,5.64,1.88,5.64,5.64,0,2.62-1.26,7.08-3.79,13.36Z"/>
    <path class="cls-1" d="M1528.74,1255.52l-1.34.59c-2.52.99-5.94,1.48-10.24,1.48l-33.7-.45c.1,1.14.15,3.02.15,5.64.2,7.37,2.41,13.16,6.64,17.37,4.23,4.21,8.94,6.31,14.14,6.31,4.45,0,8.97-1.04,13.54-3.12,4.58-2.08,8.6-5.69,12.06-10.84.84,3.22.84,6.3,0,9.24-.84,2.94-2.31,5.49-4.42,7.64-2.1,2.15-4.64,4.03-7.61,5.64-2.97,1.61-6.19,2.82-9.65,3.64-3.46.82-6.95,1.22-10.46,1.22-4.5,0-8.7-.71-12.58-2.12-3.88-1.41-7.41-3.54-10.58-6.38-3.17-2.84-5.68-6.67-7.53-11.47-1.86-4.8-2.81-10.32-2.86-16.55,0-8.16,1.4-15.56,4.19-22.19,2.79-6.63,6.83-11.89,12.1-15.77,5.27-3.88,11.29-5.83,18.07-5.83,3.96,0,7.53.48,10.72,1.45s5.81,2.18,7.87,3.64c2.05,1.46,3.83,3.25,5.34,5.38,1.51,2.13,2.65,4.13,3.41,6.01.77,1.88,1.36,3.97,1.78,6.27.42,2.3.68,4.13.78,5.49.1,1.36.15,2.76.15,4.19v3.49ZM1497.71,1228.88c-2.03,0-3.83.54-5.42,1.63-1.58,1.09-2.92,2.68-4.01,4.79-1.09,2.1-1.99,4.3-2.71,6.61-.72,2.3-1.37,5.01-1.97,8.13,2.92-.05,7.32-.2,13.21-.45,5.89-.25,10.44-.4,13.66-.45-.05-2.42-.32-4.79-.82-7.09-.5-2.3-1.24-4.46-2.23-6.49-.99-2.03-2.33-3.65-4.01-4.86-1.68-1.21-3.59-1.82-5.71-1.82Z"/>
    <path class="cls-1" d="M1616.69,1297.9h-20.63l-.22-1.63c-.15-1.09-.22-2.18-.22-3.27,0-3.96.05-10.5.15-19.63.1-9.13.15-15.7.15-19.71.1-7.27-.52-12.53-1.86-15.77-1.34-3.24-3.76-4.86-7.27-4.86-3.96,0-7.34.67-10.13,2-2.8,1.34-5.46,3.14-7.98,5.42,0,24.1.15,39.24.45,45.42.4,5.39.82,9.4,1.26,12.02h-21.3l.15-4.68.59-47.13c.05-3.91-.33-7.24-1.15-9.98s-1.71-4.65-2.67-5.71c-.96-1.06-1.87-1.77-2.71-2.12l-1.19-.59v-2.75c5.79-3.56,11.26-5.34,16.4-5.34,2.97,0,5.34.85,7.12,2.56s2.84,3.75,3.19,6.12l-.15,4.23c1.78-1.78,3.43-3.33,4.94-4.64,1.51-1.31,3.38-2.73,5.6-4.27,2.23-1.53,4.6-2.71,7.12-3.53s5.1-1.22,7.72-1.22c6.18,0,11.22,1.93,15.1,5.79,3.88,3.86,5.9,8.61,6.05,14.25-.2,10.69-.27,21.19-.22,31.51.05,10.32.62,19.48,1.71,27.5Z"/>
    <path class="cls-1" d="M1661.22,1208.54l-1.71,12.62h14.18c1.48,0,3.08-.19,4.79-.56s2.78-1,3.23-1.89c.3,1.04.45,2.25.45,3.64,0,6.09-4.35,9.13-13.06,9.13-.79,0-2.44-.07-4.94-.22-2.5-.15-4.19-.22-5.08-.22v34.21c-.05,1.44-.05,2.94,0,4.53.05,1.58.11,3.15.19,4.71s.32,3.04.74,4.45c.42,1.41.95,2.65,1.6,3.71.64,1.06,1.57,1.92,2.78,2.56,1.21.64,2.63.96,4.27.96,3.07,0,6.26-.51,9.57-1.52,3.31-1.01,5.39-2.36,6.23-4.04,1.29,3.17,1.01,6.27-.82,9.31-1.83,3.04-4.69,5.47-8.57,7.27-3.88,1.81-8.05,2.71-12.51,2.71s-8.5-.54-11.54-1.63-5.36-2.77-6.94-5.05c-1.58-2.28-2.67-4.84-3.27-7.68-.59-2.84-.89-6.37-.89-10.58,0-3.76.25-9.35.74-16.77.49-7.42.74-12.84.74-16.25,0-5.84-.45-9.33-1.34-10.46-2.03-2.57-4.55-4.4-7.57-5.49l.74-4.53c.45,0,1.04-.1,1.78-.3.74-.2,1.89-.66,3.45-1.37,1.56-.72,3.29-2.04,5.2-3.97,1.9-1.93,3.7-4.35,5.38-7.27h12.17Z"/>
    <path class="cls-1" d="M1722.23,1297.75l-1.78-.74c-1.19-.45-2.51-1.37-3.97-2.78-1.46-1.41-2.46-3.03-3.01-4.86l-13.29-42.23c-.94-3.12-2.02-5.91-3.23-8.39-1.21-2.47-2.33-4.39-3.34-5.75-1.01-1.36-2.02-2.5-3.01-3.41-.99-.92-1.73-1.52-2.23-1.82-.5-.3-.87-.47-1.11-.52l-.15-2.75c1.78-1.29,4-2.42,6.64-3.41,2.65-.99,5.11-1.48,7.38-1.48,4.25,0,7.37,1.01,9.35,3.04,1.98,2.03,3.56,5.27,4.75,9.72.99,5.74,4.95,18.31,11.88,37.7.1.2.71,1.45,1.82,3.75s1.72,3.6,1.82,3.9l.74-3.12c.49-2.13,1.01-3.88,1.56-5.27l9.57-27.39c1.38-3.91,2.08-7.1,2.08-9.57s-.84-4.13-2.52-5.12l-.3-2.75c1.38-1.34,3.25-2.49,5.6-3.45,2.35-.96,4.56-1.45,6.64-1.45,3.56,0,5.34,1.88,5.34,5.64,0,2.62-1.26,7.08-3.79,13.36l-30.28,74.52c-1.09,2.67-2,4.84-2.75,6.49-.74,1.66-1.71,3.61-2.89,5.86-1.19,2.25-2.39,4.04-3.6,5.38-1.21,1.34-2.63,2.67-4.27,4.01s-3.46,2.3-5.49,2.89c-2.03.59-4.26.89-6.68.89-4.55,0-8.13-1.73-10.72-5.2-2.6-3.46-3.38-7.77-2.34-12.91.99,1.24,2.58,2.25,4.79,3.04,2.2.79,4.42,1.19,6.64,1.19,3.76,0,6.96-.71,9.61-2.12,2.65-1.41,4.51-3.43,5.6-6.05l7.12-15.66,1.78-3.19Z"/>
    <path class="cls-1" d="M1763.86,1266.58v-12.02c0,.45,6.48.67,19.45.67,4.6,0,7.98-.01,10.13-.04,2.15-.02,4.35-.16,6.61-.41,2.25-.25,3.72-.62,4.42-1.11-.15,1.58-.41,3.01-.78,4.27s-.92,2.34-1.63,3.23c-.72.89-1.44,1.66-2.15,2.3-.72.64-1.68,1.16-2.89,1.56-1.21.4-2.28.72-3.19.96-.92.25-2.17.42-3.75.52-1.58.1-2.87.16-3.86.19-.99.03-2.4.04-4.23.04-1.34,0-4.04-.05-8.13-.15-4.08-.1-6.45-.15-7.09-.15-1.53,0-2.5.05-2.89.15Z"/>
    <path class="cls-1" d="M1841.94,1299.9c-7.42,0-13.72-1.7-18.89-5.08-5.17-3.39-7.76-7.33-7.76-11.84,0-2.33.82-4.65,2.45-6.98.94,3.27,3.97,6.04,9.09,8.31,5.12,2.28,9.96,3.41,14.51,3.41,2.08,0,4.07-.2,5.97-.59,1.9-.4,3.76-1.05,5.57-1.97,1.81-.92,3.24-2.25,4.3-4.01,1.06-1.76,1.6-3.87,1.6-6.35,0-2.18-.82-4.33-2.45-6.46-1.63-2.13-3.74-4.12-6.31-5.97-2.57-1.86-5.43-3.77-8.57-5.75-3.14-1.98-6.28-4.11-9.43-6.38-3.14-2.28-6-4.69-8.57-7.24-2.57-2.55-4.68-5.53-6.31-8.94s-2.45-7.03-2.45-10.84c0-3.51.66-6.94,1.97-10.28,1.31-3.34,3.22-6.37,5.71-9.09,2.5-2.72,5.75-4.91,9.76-6.57,4.01-1.66,8.49-2.49,13.43-2.49,3.22,0,6.25.25,9.09.74,2.84.5,5.49,1.26,7.94,2.3s4.24,1.84,5.38,2.41c1.14.57,2.62,1.4,4.45,2.49.45,1.14.67,2.92.67,5.34,0,5.34-1.53,9.55-4.6,12.62l-3.49-.82c-1.04-3.27-2.85-6.09-5.42-8.46-2.57-2.38-5.22-4.06-7.94-5.05-2.72-.99-5.32-1.48-7.79-1.48-2.08,0-4.07.31-5.97.93-1.91.62-3.61,1.79-5.12,3.53-1.51,1.73-2.26,3.93-2.26,6.61s.87,5.04,2.6,7.38c1.73,2.35,4,4.49,6.79,6.42,2.79,1.93,5.88,3.9,9.24,5.9,3.36,2,6.72,4.16,10.06,6.46s6.41,4.74,9.2,7.31c2.79,2.57,5.06,5.63,6.79,9.17,1.73,3.54,2.6,7.36,2.6,11.47,0,8.31-3.35,15.36-10.06,21.15-6.71,5.79-15.3,8.68-25.79,8.68Z"/>
    <path class="cls-1" d="M1916.38,1264.8c0,14.15.54,25.19,1.63,33.1h-21.3l.82-51.8c0-3.17-.27-5.97-.82-8.42-.54-2.45-1.16-4.27-1.86-5.46-.69-1.19-1.46-2.16-2.3-2.93-.84-.77-1.48-1.22-1.93-1.37s-.74-.22-.89-.22v-2.75c5.79-3.56,11.26-5.34,16.4-5.34,7.32,0,10.98,4.82,10.98,14.47,0,1.48-.12,4-.37,7.53-.25,3.54-.37,6.3-.37,8.28v14.92ZM1894.93,1200.15c0-2.97,1.04-5.48,3.12-7.53,2.08-2.05,4.58-3.08,7.5-3.08s5.16,1.03,7.16,3.08c2,2.05,3.01,4.56,3.01,7.53s-1,5.22-3.01,7.2c-2,1.98-4.39,2.97-7.16,2.97-2.92,0-5.42-.99-7.5-2.97-2.08-1.98-3.12-4.38-3.12-7.2Z"/>
    <path class="cls-1" d="M1979.39,1297.9l-2.89-5.94.15.15c-1.88-2.82-4.17-6.36-6.87-10.61-2.7-4.25-4.91-7.92-6.64-10.98-.25.35-.66,1.09-1.22,2.23-.57,1.14-.98,1.88-1.22,2.23-2.08,2.72-4.01,5.25-5.79,7.57-1.78,2.33-3.56,4.86-5.34,7.61s-3.24,5.33-4.38,7.76h-16.55l29.17-35.55-10.02-15.07c-.84-1.34-2.09-3.41-3.75-6.23-1.66-2.82-2.97-4.96-3.93-6.42-.96-1.46-2.26-2.94-3.9-4.45-1.63-1.51-3.34-2.49-5.12-2.93v-2.75c1.38-.99,2.55-1.78,3.49-2.38.94-.59,2.24-1.16,3.9-1.71,1.66-.54,3.3-.82,4.94-.82,2.42,0,4.46.24,6.12.71,1.66.47,3.03,1.25,4.12,2.34,1.09,1.09,1.93,2.13,2.52,3.12.59.99,1.36,2.4,2.3,4.23.94,1.83,1.78,3.34,2.52,4.53l6.98,11.06,1.71,3.86.82-1.48c.54-.99,1.09-1.78,1.63-2.38l6.98-8.16c2.13-2.72,3.19-5.05,3.19-6.98,0-1.34-.57-2.4-1.71-3.19v-2.75c1.43-1.34,3.33-2.49,5.68-3.45,2.35-.96,4.56-1.45,6.64-1.45,1.83,0,3.18.53,4.04,1.6.87,1.06,1.3,2.41,1.3,4.04,0,1.73-.2,3.28-.59,4.64-.4,1.36-1.1,2.85-2.12,4.45-1.01,1.61-2.39,3.37-4.12,5.27-1.73,1.91-3.93,4.26-6.61,7.05-2.67,2.8-5.89,6.05-9.65,9.76,2.13,3.32,4.42,6.87,6.87,10.65s4.79,7.37,7.01,10.76c2.23,3.39,4.6,6.87,7.12,10.43s4.9,6.78,7.12,9.65h-23.9Z"/>
  </g>
  <rect class="cls-1" x="1260.02" y="1102.24" width="172.87" height="17.29"/>
</svg>